<svg id="Layer_1" data-name="Layer 1" xmlns="http://www.w3.org/2000/svg" viewBox="0 0 365.09 483.39"><title>cep</title><path d="M128.92,280c-.59-.16-1.07-.28-1.55-.43-2.48-.76-3.19-3.18-1.49-5.08.17-.19.35-.39.51-.59,1.83-2.33,1.83-2.59.21-5-8.28-12.2-16.17-24.63-23.55-37.4-4.71-8.15-9.13-16.42-12.1-25.39a44.82,44.82,0,0,1-1-26.46c1.53-5.57,3.52-11,5.21-16.54a2.55,2.55,0,0,0-.38-2c-4.16-5.13-4.24-11.35-.3-16.66,1.38-1.86,2.26-4.08,3.63-5.94,2.66-3.59,6.41-5.86,10.38-7.68,4.52-2.07,9.12-4,13.75-5.8,4-1.56,8.08-2.78,12.05-4.34a28.4,28.4,0,0,0,5.8-3c5-3.47,9.74-7.32,14.86-10.6,4.29-2.75,8.85-5.4,14.23-5.2,2.57.1,3.57-1.7,4.54-3.25,3.4-5.43,8.54-7.23,14.52-7.65a3.29,3.29,0,0,0,2.11-1.26C193,86,196.12,83,200.62,81.84c2.19-.55,4.52-.57,6.74-1a3.28,3.28,0,0,0,2.1-1.31C213.11,72.63,219,69.6,226.56,69c.91-.07,1.88-1.18,2.55-2,2.33-2.94,4.77-5.74,8.46-6.92a24.27,24.27,0,0,1,6-1.2A6.36,6.36,0,0,0,249,55.78c1.82-2.75,4.08-5.15,7.36-6.06a34.08,34.08,0,0,1,6.48-.86,3,3,0,0,0,2.61-1.21c2.61-3.52,5.81-6.41,10.4-6.79a3.76,3.76,0,0,0,3.58-2.28c2.56-4.83,6.86-8,11.25-11,2.62-1.81,5.15-3.73,7.77-5.54a41.37,41.37,0,0,1,21.47-7.58c7.27-.41,14.53-1.12,21.8-1.28a117.75,117.75,0,0,1,18.05.65c13.45,1.79,26.83,4.05,40.22,6.25,3.46.57,7,1.39,9.75,3.7A17.2,17.2,0,0,1,413.64,28c1.82,3.05,3.9,6.17,4.75,9.54,1,4.09,3.42,6.71,6.11,9.68,3.25,3.59,5.67,8,7.88,12.42,2.91,5.78,5.17,11.89,7.91,17.76,1.33,2.86,3.28,5.44,4.65,8.29a83.43,83.43,0,0,1,8,27.05A67.4,67.4,0,0,1,451.21,139c-.4,1.42-1.22,2.73-1.62,4.16-.67,2.43-2.8,4.32-2.47,7.15a3.67,3.67,0,0,1-1,2.67c-1.57,1.51-1,2.59.35,3.68,2.05,1.64,2.86,4,3.55,6.35.8,2.73-.57,5.14-2.13,7a23.67,23.67,0,0,1-8.84,6.85c-1.5.64-1.68,1.45-1,2.7a12.32,12.32,0,0,1,1.51,2.66,4,4,0,0,1-.52,2.7c-2,3.15-4.23,6-7.89,7.45-.7.29-1.24,2.27-1,3.3.74,3.43.53,6.65-1.56,9.47a19.86,19.86,0,0,1-4.36,4.38c-2,1.44-2.5,3.4-2.53,5.54,0,3.58-1.91,6.09-4.52,8.14A35.27,35.27,0,0,1,413,225.7c-2.35,1.37-2.93,3.16-2.29,5.84.81,3.4-.41,6.42-2.32,9.16a11.75,11.75,0,0,1-7.45,4.63,2.92,2.92,0,0,0-1.25,2.56c2.05,5.17,0,9.37-2.84,13.41-1.22,1.75-2.51,3.31-5.14,3.15-2.27-.15-3.9,3.14-2.86,5.72,1.63,4-.85,9.62-3.43,11.41-1.38,1-3.16,1.33-4.93,2l-.36-1.53c-.63.47-1.51.83-1.87,1.48-.55,1-1.29,2.42-1,3.3.85,2.33.59,4.45.25,6.8s-.56,4.63-1.92,6.53c-2.71,3.8-5.6,7.46-8.42,11.18-2.57,3.4-5.37,6.65-7.66,10.23a102.57,102.57,0,0,0-9.89,21.15A39.26,39.26,0,0,1,343,354.58c-2.36,2.87-5.59,4-9.19,4.4a2.28,2.28,0,0,0-1.62,1.15,28.44,28.44,0,0,0-1.56,11,18.21,18.21,0,0,0,7.75,14.65,24.93,24.93,0,0,1,5,5.16,13.86,13.86,0,0,1,1.81,4.56c.4,1.47.38,3,.78,4.51a4,4,0,0,0,1.45,1.73c1.27,1,1.44,2,0,2.59-1.79.76-1.82,2.11-2,3.53a2.68,2.68,0,0,0,.36.31l3.12,1.67c-.62,1-1.18,2-1.87,3-.49.68-1.31,1.17-1.65,1.9-.24.52.05,1.29.11,2a10,10,0,0,1,.16,1.93c-.09.78-.51,1.54-.54,2.31-.09,3,0,5.93-.12,8.9-.09,3.2-2.26,5.31-4.5,7-4.29,3.15-7.29,7.34-10.46,11.47-2.47,3.22-5.22,6.24-8,9.2-5.33,5.67-10.63,11.38-16.2,16.81-3.83,3.74-7.68,7.76-12.25,10.37-6.07,3.47-12.8,5.86-19.36,8.41a52.26,52.26,0,0,1-15.54,3.3,38.76,38.76,0,0,1-16.91-3c-10.25-4-16.26-12-20.85-21.54a87.86,87.86,0,0,1-8-24.72c-.91-5.83-1.35-11.74-1.8-17.64-.83-10.9,1.36-21.49,3.68-32,1.49-6.78-.33-12.82-3.19-18.8-3.38-7.08-6.95-14.09-9.84-21.36-1.38-3.46-1.33-7.47-2-11.22q-1.72-9.48-3.56-18.94a90.57,90.57,0,0,0-2-9.3,15.44,15.44,0,0,0-3-5.59c-4-4.54-8.19-8.87-12.38-13.22s-9.67-6.7-15.13-9c-7.06-3-14.18-5.79-21.19-8.86-1.77-.77-2.8.17-4.07.82l-5.17,2.65c-2.83,1.47-5-.73-4.55-3.73C128.75,280.7,128.83,280.4,128.92,280ZM146.13,277c1.54.81,2.52,1.45,3.59,1.88,6.37,2.59,12.8,5.06,19.14,7.71,4.85,2,9.72,4.2,13.44,8,4.78,4.92,9.1,10.28,13.95,15.13,4.35,4.35,4.68,10.1,6.11,15.45.91,3.41,1.08,7,1.67,10.52.45,2.71,1.11,5.38,1.55,8.09.67,4.14,1.24,8.29,1.86,12.44.56,3.76,3.25,6.48,4.8,9.76,2.39,5.07,4.94,10.06,7.12,15.22a24.55,24.55,0,0,1,1.33,16.2c-2.08,7.61-3.92,15.22-4.33,23.11-.2,3.75.05,7.52-.17,11.27-.21,3.51,1.15,6.88.36,10.5a15.22,15.22,0,0,0,.57,7.31c1.13,3.75,2.89,7.31,4.31,11,1.89,4.87,3.7,9.73,7.53,13.57,2.5,2.5,4.34,5.76,7.07,7.93,8.87,7.07,19.18,8.75,30,6.22,5.75-1.34,11.22-3.9,16.86-5.79A35.67,35.67,0,0,0,295.59,475q4.08-3.71,8.07-7.53c2.1-2,4.13-4.11,6.16-6.2,2.71-2.8,5.36-5.65,8.08-8.43,3.82-3.91,7.93-7.52,10.85-12.26,2-3.19,4.3-6.27,7.74-8.05a5,5,0,0,0,3-3.57,63.18,63.18,0,0,0,.35-7.85,33.63,33.63,0,0,0-.07-4.55c-.15-1.35-.25-2.95-1-3.92-1.2-1.5-1.26-2.43.08-3.81,1.18-1.21,2-2.55.15-4.21-1.52-1.33-1.21-2.34.47-3.54,1.47-1,1.49-1.79.24-3.26a3,3,0,0,1-.8-1.72c0-2.69-1.62-4.28-3.46-6-3.79-3.44-7.28-7.09-9-12.22a30,30,0,0,1-.47-18.54,2.2,2.2,0,0,0-1.14-2.86c-3.54-2.27-6.14-5.39-6.81-9.72-.17-1.13.21-2.33.1-3.47a9.23,9.23,0,0,1,3.88-8.77c4.75-3.63,10.47-4.72,16.12-5.78,1.57-.3,2.07-.84,2-2.16a84.59,84.59,0,0,0-.7-8.92c-1.78-10.82-3.46-21.66-5.65-32.39-2.12-10.36-4.61-20.65-7.37-30.86a99,99,0,0,0-6.3-17.54c-4.8-9.83-11.67-18.33-19-26.46-1.9-2.12-3.79-4.26-5.62-6.45-2.94-3.54-5.82-7.13-8.58-10.52-2.93,1.06-5.74,2-8.48,3.11a8.18,8.18,0,0,0-3,1.83c-2.94,3.22-6.24,5.87-10.54,6.87-3.74.87-7,2.08-9.67,5.27a17.58,17.58,0,0,1-12.27,6,4.41,4.41,0,0,0-3.4,1.85c-2.77,3.51-6.09,6.36-10.6,7.52-4.06,1-8,1.76-10.84,5.8s-7.94,5.66-12.85,6.64a3.58,3.58,0,0,0-2.85,2,5.48,5.48,0,0,1-.84,1.3,27.23,27.23,0,0,1-17.5,8.77,10.61,10.61,0,0,0-7.3,3.49,63.46,63.46,0,0,1-9.66,9c-4.76,3.56-9.92,6.6-14.89,9.88C150.34,274.12,148.45,275.44,146.13,277ZM101.89,165.65c-.22.62-.41,1-.53,1.46q-2.49,9.24-5,18.49c-.65,2.45-1.75,4.9-1.78,7.36-.1,7.56,2.4,14.63,5.83,21.15,5.31,10.09,11.31,19.81,17,29.7a165.7,165.7,0,0,0,13.42,20c2.06,2.62,3.34,2.47,5.17-.42.27-.44.49-.91.75-1.35,1.29-2.18,4.22-4.4,6.7-3.11,1.15.6,1.84.13,2.76-.55a78.51,78.51,0,0,1,8-5.49c5.77-3.26,12.14-4.88,18.58-6.25,1.54-.33,3.34-.51,4.46-1.43,2.4-2,4.35-4.45,6.64-6.56s5-4.24,8.29-4.81a53.25,53.25,0,0,1,6.58-.67,2.67,2.67,0,0,0,2.59-1.88c1.27-2.92,3.15-5.57,6-6.87a31.26,31.26,0,0,1,8.53-2.25,5.49,5.49,0,0,0,4.32-2.42c.46-.71.86-1.46,1.37-2.13,2.75-3.62,6.09-6.2,10.94-6,2.88.14,5.58,0,6.83-3.27a1.19,1.19,0,0,1,.2-.33c2-2.3,3.5-5.09,6.68-6a36.52,36.52,0,0,1,4.91-1c2.48-.34,4.87-.32,6.35-3.12,2.16-4.09,5.86-6.23,10.48-6.74,1.32-.14,2.63-.36,4-.56-1.7-5.31,3.32-7.21,5-10.94a2,2,0,0,0-.34-.65c-3.42-3.48-6.93-6.87-10.28-10.42-2.29-2.43-4.94-3.2-8.23-3.13s-7.59-1.29-7.79-6c0-.42-.87-1.07-1.41-1.17-3.86-.66-6.46-2.9-8.47-6.16-1.14-1.85-2.66-3.57-5.34-2.57-.21.08-.5-.08-.75-.09a45.6,45.6,0,0,1-16.32-4.2c-2.24-1-4.67-1.83-6.64-3.6-1.14-1-2.19-2.8-4.35-2.25-4.92,1.27-9.19-.09-13-3.37a2.3,2.3,0,0,0-1.65-.56c-4.8.84-9.28.11-13-3.06-1.66-1.4-3-1.07-4.58-.35a15.67,15.67,0,0,1-10.08,1c-4-.89-8-1.85-11.89-3-4.85-1.45-9.75-.91-14.48-.06A62.72,62.72,0,0,0,126,134.15c-5.81,2.38-5.76,2.53-6.7,8.8-.37,2.5-.75,5-1,7.51-.34,4-2.54,7.29-4.08,10.81-.55,1.25-1.94,2.23-3.11,3.11C108.44,166.46,105.27,166.4,101.89,165.65Zm317.78,29.78c-.46.06-.7,0-.83.13-.88.65-1.7,1.41-2.62,2-6.74,4.18-13.57,8.09-21.36,10.17a121.53,121.53,0,0,1-24.54,4.1,81.91,81.91,0,0,1-41.83-8.2c-5.56-2.76-11.07-5.6-16.62-8.38a1.55,1.55,0,0,0-1.1-.08c-2.67,1-4.75-.45-6.78-1.77a2.16,2.16,0,0,1-.32-2,45.63,45.63,0,0,1,2.25-4.28c.43-.79,1.17-1.68,0-2.34s-1.9-2.28-3.84-1.38a63.29,63.29,0,0,1-8,3c-2,.61-2.94,2.79-1.62,4.4,2.78,3.41,5.64,6.76,8.43,10.16,5.81,7.06,11.83,14,17.32,21.26a73.69,73.69,0,0,1,13,27c2,8.32,4.2,16.61,6.09,25,1.74,7.71,3.24,15.48,4.76,23.24.85,4.32,1.54,8.68,2.29,13,1.06,6.15,2,12.31,1.53,18.58-.12,1.66-.26,3.32-.38,5l.7.18c1-2.35,2.08-4.67,3-7.06,2.24-6.16,4.28-12.39,6.6-18.52a70,70,0,0,1,8-15.09c2.4-3.46,4.85-6.76,8.63-8.76a2.85,2.85,0,0,0,1.7-2.73c.29-6.66,3.42-11.89,8.48-16a5.42,5.42,0,0,0,2.24-4c.65-6.2,3-11.46,8.24-15.27,1.27-.92,2.83-1.69,3-3.93.46-7,3.23-12.89,9.4-16.81a2.07,2.07,0,0,0,.8-1.42c.43-6.84,3.68-12,9.21-15.88a3.68,3.68,0,0,0,1.27-2.17c.63-3.37.83-6.84,2.61-9.91A5.19,5.19,0,0,0,419.68,195.43ZM284.14,49.75c-1.42-1.81-1.54-1.79-2.76-.1-.74,1-1.38,2.61-2.36,2.89-3.28,1-6.71,1.4-10.07,2.12a3.32,3.32,0,0,0-1.92,1,18.68,18.68,0,0,1-12.43,7.82c-2.8.48-5.29,1.1-6.79,3.84a8.27,8.27,0,0,1-2.19,2.17,24.88,24.88,0,0,1-13.29,5.41,2.44,2.44,0,0,0-1.44.73c-1.21,1.35-2.22,2.89-3.49,4.17-3.79,3.79-8.22,6.28-13.72,6.65A3.93,3.93,0,0,0,211.11,88c-3.84,5.78-9.34,8.47-16.09,8.73a3.66,3.66,0,0,0-3.34,1.72,18,18,0,0,1-12.14,8.33,13.21,13.21,0,0,0-7,3.7,49.11,49.11,0,0,1-18.09,10.54,16.05,16.05,0,0,0-2.22,1.12l.19.55c4,0,7.91.28,11.82-1,4.84-1.65,9.53-1.55,13.78,1.84.69.55,1.95,1.2,2.54.92,5.31-2.45,9.69-.63,13.92,2.56a3.39,3.39,0,0,0,2.38.5c4.49-.79,8.53-.23,11.79,3.3.37.4,1,1,1.4.85,3.4-1,6.72-.25,10,.41,7.93,1.58,15,4.88,20.77,10.67a3.76,3.76,0,0,0,1.65.86,60.54,60.54,0,0,1,7.06,1.83,8.19,8.19,0,0,1,5.11,5.23,4.94,4.94,0,0,0,2.87,3.09c2.38,1.21,5.18,2.07,6.43,4.89.11.25.69.39,1.07.43,3.59.32,6.76,1.32,9,4.43.76,1,1,2,.25,2.74-1.25,1.09-.59,1.76.14,2.53,2.33,2.49,4.68,5,6.92,7.31a21.34,21.34,0,0,1,2.29-1c1.66-.47,1.73-1.32.74-2.55-2.58-3.22-5.14-6.45-7.73-9.66-2.06-2.56-4.29-5-6.18-7.66a56,56,0,0,1-8.37-19.15,140.1,140.1,0,0,1-3-17c-.72-6.06-1.2-12.19.08-18.26A91,91,0,0,1,262.13,89c1.55-4.36,3.78-8.48,5.7-12.71,1.47-3.24,2.88-6.39,3.18-10.13.33-4.15,2.27-6.6,6.18-6,2.29.36,4.54,1,6.84,1.27a2,2,0,0,0,1.66-.92,5.06,5.06,0,0,0-2.57-6.34c-1.84-1-1.89-2.3-.16-3.44C283.37,50.42,283.75,50.07,284.14,49.75Zm.14-7.48a31.86,31.86,0,0,0,3.56,1.79c2.8,1,5.87,1,8.23-.56a113.92,113.92,0,0,1,10.87-7.06,88.1,88.1,0,0,1,19.21-7.14c11-2.81,22.2-3.09,33.45-1.9a99.63,99.63,0,0,1,25.72,6.1A158.58,158.58,0,0,1,400,40.24a7.57,7.57,0,0,1,4.25,6c.15,1.3,0,2.5-1.71,2.69-.33,0-.89.53-.88.77a13.55,13.55,0,0,0,.65,4,2.68,2.68,0,0,0,2.13,1.28,4.08,4.08,0,0,0,3.31-6.19,3.72,3.72,0,0,1-.18-2.44c.37-1.4,1.42-1.58,2.78-1.28,1.89.41,4.2-.66,4-1.8a21.67,21.67,0,0,0-1.14-4.64,34.17,34.17,0,0,0-2.14-4.12c-1.79-3.29-3.83-6.39-7.7-7.47-2.88-.81-5.8-1.46-8.74-2-4.92-.93-9.86-1.85-14.81-2.57-8.18-1.19-16.24-3.16-24.6-3.26A225.84,225.84,0,0,0,320.64,21c-5.83.84-11.66,1.72-16.67,5.29s-10.42,7-15.43,10.75C286.82,38.35,285.72,40.47,284.28,42.28Zm53.29,296.87-.45-.41c-1.17.49-2.33,1-3.5,1.47-2.55,1-5.13,2-7.67,3.09-1.21.52-1.76,1.64-.89,2.67a19.82,19.82,0,0,0,3.9,3.41,2.07,2.07,0,0,0,2-.39c1.82-2.25,3.53-4.6,5.19-7A21.92,21.92,0,0,0,337.57,339.14ZM149.41,267.2c6.23-4,12.54-7.47,17.81-12.56a23.86,23.86,0,0,0-7.45,2.26c-3.37,1.91-6.4,4.42-9.67,6.51C148.59,264.38,148.45,265.38,149.41,267.2Zm80.28-124.4C226.2,140,222,139,217.77,138.22A24.87,24.87,0,0,0,229.69,142.8Zm-123.31.53c-2.34.66-4.17,1.61-5.14,3.52-.32.63.19,1.67.39,3ZM418.52,49.58c-1.65,2.1-1.79,2.68-.9,3.24,1.55,1,3.14,1.83,5,2.92ZM188.86,242.41l.3.73,5.66-3.07A5.28,5.28,0,0,0,188.86,242.41Zm-82.26-87.9c3.3.08,3.5-.25,2.38-3.86ZM339.5,344.39l-3,5.16C339.07,348.47,340.19,346.47,339.5,344.39Z" transform="translate(-88.37 -13.11)"/></svg>