<svg id="Layer_1" data-name="Layer 1" xmlns="http://www.w3.org/2000/svg" viewBox="0 0 1822.06 432.49"><defs><style>.cls-1{fill:none;}.cls-2{fill:#fff;}</style></defs><title>ergo_bottle</title><path d="M601.08,212.33a2.31,2.31,0,0,0-2,1.46q-.8,1.46-.8,5.65t.81,5.67a2.38,2.38,0,0,0,2.08,1.44,2.33,2.33,0,0,0,2-1.46q.81-1.46.81-5.65t-.81-5.67A2.4,2.4,0,0,0,601.08,212.33Z" transform="translate(-4.24 -3.38)"/><path d="M683.76,217a3.11,3.11,0,0,0,.4-1.6,2.75,2.75,0,0,0-.77-2.07,3.15,3.15,0,0,0-2.28-.75h-4.5v5.74h4a5,5,0,0,0,2-.32A2.44,2.44,0,0,0,683.76,217Z" transform="translate(-4.24 -3.38)"/><polygon class="cls-1" points="536 216.66 543.88 216.66 543.88 214.62 536 214.62 536 209.31 544.41 209.31 544.41 207.26 534.12 207.26 534.12 224.62 544.74 224.62 544.74 222.57 536 222.57 536 216.66"/><path class="cls-1" d="M578.75,224.79q.46-.58,2-2.18a23.41,23.41,0,0,0,3.33-4.06,6.28,6.28,0,0,0,.88-3.18,5.36,5.36,0,0,0-1.12-3.34,3.89,3.89,0,0,0-3.3-1.47,4.29,4.29,0,0,0-3.23,1.26,5.86,5.86,0,0,0-1.41,3.76l1.8.23a3.84,3.84,0,0,1,.78-2.59,2.64,2.64,0,0,1,3.91-.07,3.05,3.05,0,0,1,.77,2.16,5.08,5.08,0,0,1-.76,2.48,20.69,20.69,0,0,1-3.21,3.77,15.63,15.63,0,0,0-2.88,3.64,5.84,5.84,0,0,0-.75,2.78H585v-2h-7A6.57,6.57,0,0,1,578.75,224.79Z" transform="translate(-4.24 -3.38)"/><path class="cls-1" d="M621.13,212.91a10.74,10.74,0,0,1-2.55,2V217a10.56,10.56,0,0,0,1.87-1.12,9.3,9.3,0,0,0,1.62-1.45V228h1.75V210.58h-1.14A7.67,7.67,0,0,1,621.13,212.91Z" transform="translate(-4.24 -3.38)"/><path class="cls-1" d="M601.16,210.58a3.74,3.74,0,0,0-3.47,2.25,14.66,14.66,0,0,0-1.18,6.62q0,4.88,1.3,6.87a3.86,3.86,0,0,0,3.33,2,3.74,3.74,0,0,0,3.48-2.25,14.7,14.7,0,0,0,1.17-6.6q0-4.84-1.42-7A3.63,3.63,0,0,0,601.16,210.58Z" transform="translate(-4.24 -3.38)"/><path class="cls-1" d="M638.09,212.92H645a24.51,24.51,0,0,0-2.47,4.47,30.78,30.78,0,0,0-1.8,5.53,25.33,25.33,0,0,0-.69,5.08h1.79a29.66,29.66,0,0,1,1.8-8.5,26,26,0,0,1,3.62-7v-1.66h-9.2Z" transform="translate(-4.24 -3.38)"/><path class="cls-1" d="M683.31,221.07a4.83,4.83,0,0,0-1.21-1,4.41,4.41,0,0,0,4-4.73,5.48,5.48,0,0,0-.6-2.62,3.7,3.7,0,0,0-1.54-1.62,6.67,6.67,0,0,0-2.92-.48h-6.31V228h1.88V220.3h2.18a3.45,3.45,0,0,1,1.47.25,3.26,3.26,0,0,1,1.09,1,22.63,22.63,0,0,1,1.66,2.85l1.9,3.61h2.37l-2.49-4.72A12.13,12.13,0,0,0,683.31,221.07Z" transform="translate(-4.24 -3.38)"/><polygon class="cls-1" points="496.34 209.31 501.03 209.31 501.03 224.62 502.91 224.62 502.91 209.31 507.62 209.31 507.62 207.26 496.34 207.26 496.34 209.31"/><path class="cls-1" d="M578.75,224.79q.46-.58,2-2.18a23.41,23.41,0,0,0,3.33-4.06,6.28,6.28,0,0,0,.88-3.18,5.36,5.36,0,0,0-1.12-3.34,3.89,3.89,0,0,0-3.3-1.47,4.29,4.29,0,0,0-3.23,1.26,5.86,5.86,0,0,0-1.41,3.76l1.8.23a3.84,3.84,0,0,1,.78-2.59,2.64,2.64,0,0,1,3.91-.07,3.05,3.05,0,0,1,.77,2.16,5.08,5.08,0,0,1-.76,2.48,20.69,20.69,0,0,1-3.21,3.77,15.63,15.63,0,0,0-2.88,3.64,5.84,5.84,0,0,0-.75,2.78H585v-2h-7A6.57,6.57,0,0,1,578.75,224.79Z" transform="translate(-4.24 -3.38)"/><path class="cls-1" d="M638.09,212.92H645a24.51,24.51,0,0,0-2.47,4.47,30.78,30.78,0,0,0-1.8,5.53,25.33,25.33,0,0,0-.69,5.08h1.79a29.66,29.66,0,0,1,1.8-8.5,26,26,0,0,1,3.62-7v-1.66h-9.2Z" transform="translate(-4.24 -3.38)"/><path class="cls-1" d="M683.31,221.07a4.83,4.83,0,0,0-1.21-1,4.41,4.41,0,0,0,4-4.73,5.48,5.48,0,0,0-.6-2.62,3.7,3.7,0,0,0-1.54-1.62,6.67,6.67,0,0,0-2.92-.48h-6.31V228h1.88V220.3h2.18a3.45,3.45,0,0,1,1.47.25,3.26,3.26,0,0,1,1.09,1,22.63,22.63,0,0,1,1.66,2.85l1.9,3.61h2.37l-2.49-4.72A12.13,12.13,0,0,0,683.31,221.07Z" transform="translate(-4.24 -3.38)"/><path class="cls-1" d="M621.13,212.91a10.74,10.74,0,0,1-2.55,2V217a10.56,10.56,0,0,0,1.87-1.12,9.3,9.3,0,0,0,1.62-1.45V228h1.75V210.58h-1.14A7.67,7.67,0,0,1,621.13,212.91Z" transform="translate(-4.24 -3.38)"/><polygon class="cls-1" points="496.34 209.31 501.03 209.31 501.03 224.62 502.91 224.62 502.91 209.31 507.62 209.31 507.62 207.26 496.34 207.26 496.34 209.31"/><polygon class="cls-1" points="536 216.66 543.88 216.66 543.88 214.62 536 214.62 536 209.31 544.41 209.31 544.41 207.26 534.12 207.26 534.12 224.62 544.74 224.62 544.74 222.57 536 222.57 536 216.66"/><path class="cls-1" d="M601.16,210.58a3.74,3.74,0,0,0-3.47,2.25,14.66,14.66,0,0,0-1.18,6.62q0,4.88,1.3,6.87a3.86,3.86,0,0,0,3.33,2,3.74,3.74,0,0,0,3.48-2.25,14.7,14.7,0,0,0,1.17-6.6q0-4.84-1.42-7A3.63,3.63,0,0,0,601.16,210.58Z" transform="translate(-4.24 -3.38)"/><path d="M1587.21,202.83a1.74,1.74,0,0,0-1.49,1.09,10,10,0,0,0-.6,4.24,9.83,9.83,0,0,0,.61,4.25,1.79,1.79,0,0,0,1.56,1.08,1.75,1.75,0,0,0,1.5-1.09,15.15,15.15,0,0,0,0-8.5A1.8,1.8,0,0,0,1587.21,202.83Z" transform="translate(-4.24 -3.38)"/><path d="M1586.27,140.47a1.91,1.91,0,0,0-3.11-.15,3.21,3.21,0,0,0-.68,2h4.31A3.59,3.59,0,0,0,1586.27,140.47Z" transform="translate(-4.24 -3.38)"/><path d="M1567.94,160.86a1.5,1.5,0,1,0-1.06-.44A1.44,1.44,0,0,0,1567.94,160.86Z" transform="translate(-4.24 -3.38)"/><path d="M1587.21,291.7a1.74,1.74,0,0,0-1.49,1.09,10,10,0,0,0-.6,4.24,9.83,9.83,0,0,0,.61,4.25,1.79,1.79,0,0,0,1.56,1.08,1.75,1.75,0,0,0,1.5-1.09,15.15,15.15,0,0,0,0-8.5A1.8,1.8,0,0,0,1587.21,291.7Z" transform="translate(-4.24 -3.38)"/><path d="M1474.51,246.74a1.5,1.5,0,1,0,1.05.44A1.45,1.45,0,0,0,1474.51,246.74Z" transform="translate(-4.24 -3.38)"/><path d="M1575.88,228.53a2.33,2.33,0,0,0,.3-1.2,2.07,2.07,0,0,0-.58-1.55,2.36,2.36,0,0,0-1.71-.56h-3.37v4.31h3a3.72,3.72,0,0,0,1.51-.24A1.83,1.83,0,0,0,1575.88,228.53Z" transform="translate(-4.24 -3.38)"/><path d="M1567.94,246.74a1.5,1.5,0,1,0,1.05.44A1.45,1.45,0,0,0,1567.94,246.74Z" transform="translate(-4.24 -3.38)"/><path d="M1544.08,228.47a1.93,1.93,0,0,0-1.59.9,5.92,5.92,0,0,0,0,5.44,2,2,0,0,0,1.65.89,1.93,1.93,0,0,0,1.58-.9,5.89,5.89,0,0,0,0-5.43A2,2,0,0,0,1544.08,228.47Z" transform="translate(-4.24 -3.38)"/><path d="M1503.65,146.82a1.93,1.93,0,0,0,1.58-.9,5.89,5.89,0,0,0,0-5.43,2,2,0,0,0-1.65-.89,1.93,1.93,0,0,0-1.59.9,5.92,5.92,0,0,0,0,5.44A2,2,0,0,0,1503.65,146.82Z" transform="translate(-4.24 -3.38)"/><path d="M1535.68,295.19a2.33,2.33,0,0,0,.3-1.2,2.07,2.07,0,0,0-.58-1.55,2.36,2.36,0,0,0-1.71-.56h-3.37v4.31h3a3.72,3.72,0,0,0,1.51-.24A1.83,1.83,0,0,0,1535.68,295.19Z" transform="translate(-4.24 -3.38)"/><path d="M1586.12,159.24a3.61,3.61,0,0,0-.66,2.28,3.09,3.09,0,0,0,.63,2,1.91,1.91,0,0,0,1.51.76,1.82,1.82,0,0,0,1.48-.76,3.42,3.42,0,0,0,.6-2.17,3.49,3.49,0,0,0-.62-2.2,1.8,1.8,0,0,0-1.43-.8A1.9,1.9,0,0,0,1586.12,159.24Z" transform="translate(-4.24 -3.38)"/><path d="M1485.08,140.47a1.91,1.91,0,0,0-3.11-.15,3.21,3.21,0,0,0-.68,2h4.31A3.59,3.59,0,0,0,1485.08,140.47Z" transform="translate(-4.24 -3.38)"/><path d="M1505.24,234.8a5.89,5.89,0,0,0,0-5.43,2,2,0,0,0-1.65-.89,1.93,1.93,0,0,0-1.59.9,5.92,5.92,0,0,0,0,5.44,2,2,0,0,0,1.65.89A1.93,1.93,0,0,0,1505.24,234.8Z" transform="translate(-4.24 -3.38)"/><path d="M1544.15,146.82a1.93,1.93,0,0,0,1.58-.9,5.89,5.89,0,0,0,0-5.43,2,2,0,0,0-1.65-.89,1.93,1.93,0,0,0-1.59.9,5.92,5.92,0,0,0,0,5.44A2,2,0,0,0,1544.15,146.82Z" transform="translate(-4.24 -3.38)"/><path d="M1535.68,206.32a2.33,2.33,0,0,0,.3-1.2,2.07,2.07,0,0,0-.58-1.55,2.36,2.36,0,0,0-1.71-.56h-3.37v4.31h3a3.72,3.72,0,0,0,1.51-.24A1.83,1.83,0,0,0,1535.68,206.32Z" transform="translate(-4.24 -3.38)"/><path d="M1483.47,228.47a1.9,1.9,0,0,0-1.5.73,3.21,3.21,0,0,0-.68,2h4.31a3.59,3.59,0,0,0-.52-1.83A1.91,1.91,0,0,0,1483.47,228.47Z" transform="translate(-4.24 -3.38)"/><path d="M1613.07,169a1.73,1.73,0,0,0,1.38-.81,3.61,3.61,0,0,0,.61-2.22,3.39,3.39,0,0,0-.6-2.15,1.82,1.82,0,0,0-1.47-.76,1.89,1.89,0,0,0-1.49.76,3.11,3.11,0,0,0-.63,2.06,3.59,3.59,0,0,0,.67,2.27A1.93,1.93,0,0,0,1613.07,169Z" transform="translate(-4.24 -3.38)"/><path d="M1475.56,160.42a1.49,1.49,0,1,0-1.05.44A1.45,1.45,0,0,0,1475.56,160.42Z" transform="translate(-4.24 -3.38)"/><polygon points="1451.28 156.31 1447.95 162.18 1451.28 162.18 1451.28 156.31"/><path d="M1577.45,247.26a1.74,1.74,0,0,0-1.49,1.09,10,10,0,0,0-.6,4.24,9.83,9.83,0,0,0,.61,4.25,1.79,1.79,0,0,0,1.56,1.08,1.75,1.75,0,0,0,1.5-1.09,15.15,15.15,0,0,0,0-8.5A1.8,1.8,0,0,0,1577.45,247.26Z" transform="translate(-4.24 -3.38)"/><polygon points="1451.28 245.19 1447.95 251.05 1451.28 251.05 1451.28 245.19"/><path d="M1561.45,203.42a3.06,3.06,0,0,0-1.83-.61,3.19,3.19,0,0,0-2.63,1.33,6.71,6.71,0,0,0-1,4.12A5.85,5.85,0,0,0,1557,212a3.18,3.18,0,0,0,5.18,0,6.3,6.3,0,0,0,1.05-3.95,7.87,7.87,0,0,0-.54-3A3.69,3.69,0,0,0,1561.45,203.42Z" transform="translate(-4.24 -3.38)"/><path d="M1575.06,140.41a1.83,1.83,0,0,0,.82-.75,2.33,2.33,0,0,0,.3-1.2,2.07,2.07,0,0,0-.58-1.55,2.36,2.36,0,0,0-1.71-.56h-3.37v4.31h3A3.72,3.72,0,0,0,1575.06,140.41Z" transform="translate(-4.24 -3.38)"/><path d="M1638.58,139.59a1.9,1.9,0,0,0-1.5.73,3.21,3.21,0,0,0-.68,2h4.31a3.59,3.59,0,0,0-.52-1.83A1.91,1.91,0,0,0,1638.58,139.59Z" transform="translate(-4.24 -3.38)"/><path d="M1562.71,293.92a3.69,3.69,0,0,0-1.26-1.62,3.06,3.06,0,0,0-1.83-.61A3.19,3.19,0,0,0,1557,293a6.71,6.71,0,0,0-1,4.12,5.85,5.85,0,0,0,1.06,3.74,3.18,3.18,0,0,0,5.18,0,6.3,6.3,0,0,0,1.05-3.95A7.87,7.87,0,0,0,1562.71,293.92Z" transform="translate(-4.24 -3.38)"/><path d="M1594.47,228.47a1.71,1.71,0,0,0-1.42.88,5,5,0,0,0-.59,2.75,4.7,4.7,0,0,0,.63,2.72,1.81,1.81,0,0,0,1.48.89,1.77,1.77,0,0,0,1.45-.85,4.42,4.42,0,0,0,.61-2.58,5.3,5.3,0,0,0-.61-2.89A1.82,1.82,0,0,0,1594.47,228.47Z" transform="translate(-4.24 -3.38)"/><path d="M1638.58,228.47a1.9,1.9,0,0,0-1.5.73,3.21,3.21,0,0,0-.68,2h4.31a3.59,3.59,0,0,0-.52-1.83A1.91,1.91,0,0,0,1638.58,228.47Z" transform="translate(-4.24 -3.38)"/><path d="M1594.47,139.59a1.71,1.71,0,0,0-1.42.88,5,5,0,0,0-.59,2.75,4.7,4.7,0,0,0,.63,2.72,1.81,1.81,0,0,0,1.48.89A1.77,1.77,0,0,0,1596,146a4.42,4.42,0,0,0,.61-2.58,5.3,5.3,0,0,0-.61-2.89A1.82,1.82,0,0,0,1594.47,139.59Z" transform="translate(-4.24 -3.38)"/><path d="M1613,252a1.89,1.89,0,0,0-1.49.76,3.11,3.11,0,0,0-.63,2.06,3.59,3.59,0,0,0,.67,2.27,1.93,1.93,0,0,0,1.54.86,1.73,1.73,0,0,0,1.38-.81,3.61,3.61,0,0,0,.61-2.22,3.39,3.39,0,0,0-.6-2.15A1.82,1.82,0,0,0,1613,252Z" transform="translate(-4.24 -3.38)"/><path d="M1826.28,196.73c-.05-11.17-.5-22.34-.54-33.51a52.38,52.38,0,0,0-2.27-14.16,11.63,11.63,0,0,0-7.84-8.47c-4.49-1.43-9-2.8-13.79-2.6a14.89,14.89,0,0,1-5.19-.85c-5.31-1.71-10.71-3.13-16.09-4.62a27.61,27.61,0,0,0-8.11-1l-27.93.65c-2.25.05-4.51.19-6.76.2a9.41,9.41,0,0,0-5.73,2c-.78.58-1.54,1.21-2.3,1.82a7.75,7.75,0,0,1-5.41,1.83c-4.11-.15-8.23-.06-12.35-.11l-83.79-1.06-6.66-.08h-1.3v0l-22.38-.28v11.48h-1.23v-1.19a2.65,2.65,0,0,1-.91,1,2.19,2.19,0,0,1-1.21.36,2.93,2.93,0,0,1-2.37-1.29,5.82,5.82,0,0,1-1-3.63,7.41,7.41,0,0,1,.44-2.73,3.66,3.66,0,0,1,1.18-1.66,2.73,2.73,0,0,1,1.64-.54,2.25,2.25,0,0,1,1.2.34,2.73,2.73,0,0,1,.92,1v-3.15l-19.51-.24c.06.1.13.19.19.3a4.11,4.11,0,0,1,.45,2,3.31,3.31,0,0,1-3,3.55,3.63,3.63,0,0,1,.91.72,9.13,9.13,0,0,1,1.11,1.66l1.87,3.54h-1.78l-1.42-2.71a17,17,0,0,0-1.25-2.14,2.45,2.45,0,0,0-.82-.74,2.59,2.59,0,0,0-1.1-.19h-1.63v5.78h-1.41V136.08l-9.18-.11-2.8,12.16h-1.06l2.8-12.17-31.76-.38v1.16h-1.3v-1.18l-17.86-.21q-25.08-.29-50.15-.48a3.83,3.83,0,0,1,1.37.76,5.21,5.21,0,0,1,1.56,2.82l-1.39.4q-.71-2.71-2.85-2.71a3.15,3.15,0,0,0-1.85.55,3.68,3.68,0,0,0-1.25,1.7,7.88,7.88,0,0,0-.47,2.92,7,7,0,0,0,.94,4,2.92,2.92,0,0,0,2.5,1.34,2.75,2.75,0,0,0,2-.82,4.43,4.43,0,0,0,1.12-2.49l1.42.44a6,6,0,0,1-1.65,3.27,4.09,4.09,0,0,1-2.86,1.08,4.37,4.37,0,0,1-2.54-.72,5.12,5.12,0,0,1-1.72-2.32,9.72,9.72,0,0,1-.67-3.78,8.83,8.83,0,0,1,.67-3.64,5.14,5.14,0,0,1,1.82-2.25,4.5,4.5,0,0,1,1.26-.58l-14.59-.13a12.67,12.67,0,0,0-4.64.46,7,7,0,0,1-2.33.16c-2.35,0-4.7,0-7.06,0-15.58-.07-31.17,0-46.75-.24a175.71,175.71,0,0,1-24.61-1.69,63.87,63.87,0,0,1-14.72-3.95,74.1,74.1,0,0,1-22.44-14.8,58,58,0,0,1-5.82-6.59c-3.14-4-6-8.21-9.2-12.17-4-5-8.17-10-12.44-14.86a148.27,148.27,0,0,0-10.71-11.28c-5.68-5.23-11.38-10.46-17.4-15.34A203.4,203.4,0,0,0,1237,36.65a234.39,234.39,0,0,0-20.66-11.15c-5.24-2.39-10.31-5.14-15.83-7-5-1.66-10-3.51-15-5-5.73-1.69-11.47-3.29-17.32-4.53a188.67,188.67,0,0,0-20.26-3.33c-5.36-.54-10.71-1.2-16.08-1.52-6.35-.38-12.73-.6-19.09-.63q-41-.14-82-.11H46.47a11.76,11.76,0,0,0-2.92.16,34.5,34.5,0,0,0-9,3.62,28.83,28.83,0,0,0-9.85,10.3,28.27,28.27,0,0,0-4.14,9.61c-.66,3.63-1.7,7.22-2.29,10.89-.25,1.54-.28,3.12-.49,4.67-.33,2.42-.77,4.83-1.08,7.26-.69,5.43-1.33,10.88-2,16.31-.28,2.23-.66,4.45-.91,6.68-.28,2.43-.41,4.87-.71,7.3-.56,4.57-1.19,9.12-1.81,13.68-.28,2-.67,4.06-.87,6.1-.51,5.35-.95,10.71-1.4,16.07-.47,5.55-1,11.11-1.38,16.67q-.77,10.84-1.37,21.69c-.26,4.59-.41,9.18-.59,13.77-.08,1.86-.09,3.72-.2,5.58-.25,4.69-.59,9.37-.8,14.07-.2,4.49-.3,9-.41,13.49,0,2,0,3.91,0,5.86,0,2.64-.06,5.27,0,7.91s.15,5.47.16,8.21-.09,5.28-.1,7.92c0,2.05,0,4.11.07,6.16.16,4.3.41,8.6.56,12.91.22,6.55.36,13.11.58,19.66.18,5.47.43,10.94.64,16.42.07,1.76.07,3.53.14,5.29.2,4.79.44,9.58.62,14.38s.3,9.78.48,14.68c.09,2.44.25,4.89.35,7.33.12,2.83.09,5.68.34,8.5.49,5.46,1.1,10.9,1.71,16.35.49,4.38,1,8.76,1.59,13.13.64,4.75,1.37,9.49,2.1,14.22.37,2.42.84,4.82,1.24,7.23.64,4,1.14,8,1.92,11.88a55.11,55.11,0,0,0,6.57,17.83,37.55,37.55,0,0,0,10.61,12,29.14,29.14,0,0,0,10,4.78c3.4.77,6.78,2.08,10.39,1.23a6,6,0,0,1,1.47,0c10.38.23,20.76.66,31.15.66q169.08.06,338.15,0l130.56,0,411.08,0c22.84,0,45.67-.08,68.51-.11,8.72,0,17.44,0,26.16,0,11.56,0,23.12-.18,34.69-.2,10.29,0,20.58.14,30.86-.43,4.6-.25,9.21-.37,13.79-.84,4.77-.49,9.51-1.23,14.24-2,4.92-.84,9.81-1.82,14.69-2.86,3-.63,5.89-1.46,8.81-2.28,2.64-.74,5.22-1.69,7.86-2.4a128.87,128.87,0,0,0,16.61-5.81,241.63,241.63,0,0,0,31-15.41A230.73,230.73,0,0,0,1255.59,389c6.92-5.31,13.55-11,20-16.79a238.06,238.06,0,0,0,17.17-17.71c5.84-6.47,11.24-13.31,16.58-20.21,1.85-2.4,3.63-4.88,5.71-7.08a73.31,73.31,0,0,1,18.36-14.51,64.7,64.7,0,0,1,16.93-6.54,111.6,111.6,0,0,1,18.36-2.23c5.87-.28,11.75-.4,17.63-.46,15.19-.15,30.38-.22,45.57-.33a5,5,0,0,1,3.35.74,4.36,4.36,0,0,0,2.23.56c1.56.1,3.13.12,4.7.11q22.34-.25,44.69-.53,27.93-.3,55.86-.56l2.4,0a4.85,4.85,0,0,1-1.34-.59,5.35,5.35,0,0,1-1.94-2.28,8.33,8.33,0,0,1-.71-3.61,8.9,8.9,0,0,1,.72-3.71,5.26,5.26,0,0,1,1.88-2.33,5,5,0,0,1,2.75-.75,4.57,4.57,0,0,1,2.05.43,3.84,3.84,0,0,1,1.45,1.23,5.78,5.78,0,0,1,.85,2.19l-1.27.43a4.77,4.77,0,0,0-.65-1.65,2.69,2.69,0,0,0-1-.86,3.25,3.25,0,0,0-1.44-.31,3.5,3.5,0,0,0-2,.56,3.88,3.88,0,0,0-1.35,1.75,7.38,7.38,0,0,0-.51,2.91,6,6,0,0,0,1.09,3.91,3.53,3.53,0,0,0,2.84,1.3,4.09,4.09,0,0,0,1.71-.4,4.36,4.36,0,0,0,1.39-1v-2.42h-3.13v-1.54H1551v4.84a7.76,7.76,0,0,1-2.15,1.52,5.71,5.71,0,0,1-.81.29l9.82-.1a4.69,4.69,0,0,1-2.1-1.74,7.65,7.65,0,0,1-1.3-4.5A7.89,7.89,0,0,1,1556,292a4.53,4.53,0,0,1,3.65-1.79,4.45,4.45,0,0,1,2.58.8,5.39,5.39,0,0,1,1.84,2.32,8.85,8.85,0,0,1,.68,3.63,7.87,7.87,0,0,1-1.31,4.71,4.74,4.74,0,0,1-2,1.66l12.17-.12a4.63,4.63,0,0,1,.55-1.84,11.73,11.73,0,0,1,2.16-2.73,15.56,15.56,0,0,0,2.41-2.83,3.81,3.81,0,0,0,.57-1.86,2.29,2.29,0,0,0-.58-1.62,2,2,0,0,0-2.93,0,2.89,2.89,0,0,0-.59,1.94l-1.35-.17a4.39,4.39,0,0,1,1.06-2.82,3.22,3.22,0,0,1,2.42-.95,2.92,2.92,0,0,1,2.47,1.1,4,4,0,0,1,.84,2.5,4.7,4.7,0,0,1-.66,2.38,17.49,17.49,0,0,1-2.49,3q-1.17,1.2-1.51,1.64a5,5,0,0,0-.55.87h5.24v1.22l5,0a3.63,3.63,0,0,1-.83-.9q-1-1.49-1-5.15a11,11,0,0,1,.88-5,2.8,2.8,0,0,1,2.61-1.69,2.72,2.72,0,0,1,2.41,1.37,10,10,0,0,1,1.07,5.28,11,11,0,0,1-.88,4.95,3.36,3.36,0,0,1-.86,1.07l8.5-.08v-9.7a7,7,0,0,1-1.22,1.09,7.86,7.86,0,0,1-1.4.84v-1.54a8,8,0,0,0,1.91-1.52,5.78,5.78,0,0,0,1.17-1.75h.85V303l6.76-.07a20.36,20.36,0,0,1,.49-3.24,23.09,23.09,0,0,1,1.35-4.15,18.3,18.3,0,0,1,1.85-3.36h-5.21v-1.54h6.9v1.24a19.46,19.46,0,0,0-2.72,5.22,22.41,22.41,0,0,0-1.29,5.8l3.15,0q36.31-.39,72.62-.83c13.52-.16,27-.3,40.57-.63a10.28,10.28,0,0,1,7.23,2.54,8.9,8.9,0,0,0,1.14.92c1.85,1.09,3.66,2.13,6,2.17,11.27.2,22.54.53,33.8.78a25.9,25.9,0,0,0,10.13-1.37c1-.39,2.09-.5,3.13-.8,2.36-.66,4.73-1.28,7-2,3.92-1.29,7.83-2.52,12-2.37a12.86,12.86,0,0,0,1.46-.12,46.14,46.14,0,0,0,8.88-1.92c3.88-1.1,6.93-3.12,8.36-7.09.2-.55.48-1.07.67-1.63,1.11-3.24,2.34-6.49,2.49-9.94q.45-10.13.57-20.28c.08-6.17-.07-12.35-.06-18.52C1826.19,226.73,1826.35,211.73,1826.28,196.73Zm-1314.42,16h-4.71V228h-1.88V212.7h-4.69v-2h11.28ZM549,228H538.36V210.65h10.29v2h-8.4V218h7.87v2h-7.87V226H549Zm36,0h-9.41a5.84,5.84,0,0,1,.75-2.78,15.63,15.63,0,0,1,2.88-3.64,20.69,20.69,0,0,0,3.21-3.77,5.08,5.08,0,0,0,.76-2.48,3.05,3.05,0,0,0-.77-2.16,2.64,2.64,0,0,0-3.91.07,3.84,3.84,0,0,0-.78,2.59l-1.8-.23a5.86,5.86,0,0,1,1.41-3.76,4.29,4.29,0,0,1,3.23-1.26,3.89,3.89,0,0,1,3.3,1.47,5.36,5.36,0,0,1,1.12,3.34,6.28,6.28,0,0,1-.88,3.18,23.41,23.41,0,0,1-3.33,4.06q-1.56,1.6-2,2.18A6.57,6.57,0,0,0,578,226h7Zm19.63-2a3.74,3.74,0,0,1-3.48,2.25,3.86,3.86,0,0,1-3.33-2q-1.3-2-1.3-6.87a14.66,14.66,0,0,1,1.18-6.62,3.74,3.74,0,0,1,3.47-2.25,3.63,3.63,0,0,1,3.21,1.82q1.42,2.2,1.42,7A14.7,14.7,0,0,1,604.62,226Zm19.2,2h-1.75V214.42a9.3,9.3,0,0,1-1.62,1.45,10.56,10.56,0,0,1-1.87,1.12v-2.06a10.74,10.74,0,0,0,2.55-2,7.67,7.67,0,0,0,1.56-2.33h1.14Zm23.46-15.47a26,26,0,0,0-3.62,7,29.66,29.66,0,0,0-1.8,8.5h-1.79a25.33,25.33,0,0,1,.69-5.08,30.78,30.78,0,0,1,1.8-5.53,24.51,24.51,0,0,1,2.47-4.47h-6.95v-2h9.2ZM684.91,228l-1.9-3.61a22.63,22.63,0,0,0-1.66-2.85,3.26,3.26,0,0,0-1.09-1,3.45,3.45,0,0,0-1.47-.25h-2.18V228h-1.88V210.65H681a6.67,6.67,0,0,1,2.92.48,3.7,3.7,0,0,1,1.54,1.62,5.48,5.48,0,0,1,.6,2.62,4.41,4.41,0,0,1-4,4.73,4.83,4.83,0,0,1,1.21,1,12.13,12.13,0,0,1,1.48,2.21l2.49,4.72Zm774.65-26.44v1.54H1456v11.48h-1.41V203.1h-3.52v-1.54Zm-8.67-36,4.86-8.43h1.08v8.43h1.45V167h-1.45v3.12h-1.31V167h-4.62Zm0,88.88,4.86-8.43h1.08v8.43h1.45v1.46h-1.45V259h-1.31V255.9h-4.62Zm8.67,37.54H1456v11.48h-1.41V292h-3.52v-1.54h8.46Zm-.33-56a4.09,4.09,0,0,1-2.86,1.08,4.37,4.37,0,0,1-2.54-.72,5.12,5.12,0,0,1-1.72-2.32,9.72,9.72,0,0,1-.67-3.78,8.83,8.83,0,0,1,.67-3.64,5.14,5.14,0,0,1,1.82-2.25,4.53,4.53,0,0,1,2.56-.76,3.93,3.93,0,0,1,2.66,1,5.21,5.21,0,0,1,1.56,2.82l-1.39.4q-.71-2.71-2.85-2.71a3.15,3.15,0,0,0-1.85.55,3.68,3.68,0,0,0-1.25,1.7,7.88,7.88,0,0,0-.47,2.92,7,7,0,0,0,.94,4,2.92,2.92,0,0,0,2.5,1.34,2.75,2.75,0,0,0,2-.82,4.43,4.43,0,0,0,1.12-2.49l1.42.44A6,6,0,0,1,1459.22,235.94Zm82.3-96.42a3.32,3.32,0,0,1,5.18,0,5.45,5.45,0,0,1,1,3.59,5.87,5.87,0,0,1-1,3.78,3.33,3.33,0,0,1-5.19,0,7.1,7.1,0,0,1,0-7.36Zm2.19,72.42a3.53,3.53,0,0,0,2.84,1.3,4.09,4.09,0,0,0,1.71-.4,4.36,4.36,0,0,0,1.39-1v-2.42h-3.13v-1.54H1551v4.84a7.76,7.76,0,0,1-2.15,1.52,5.41,5.41,0,0,1-2.28.51,5.07,5.07,0,0,1-2.79-.78,5.35,5.35,0,0,1-1.94-2.28,8.33,8.33,0,0,1-.71-3.61,8.9,8.9,0,0,1,.72-3.71,5.26,5.26,0,0,1,1.88-2.33,5,5,0,0,1,2.75-.75,4.57,4.57,0,0,1,2.05.43A3.84,3.84,0,0,1,1550,203a5.78,5.78,0,0,1,.85,2.19l-1.27.43a4.77,4.77,0,0,0-.65-1.65,2.69,2.69,0,0,0-1-.86,3.25,3.25,0,0,0-1.44-.31,3.5,3.5,0,0,0-2,.56,3.88,3.88,0,0,0-1.35,1.75,7.38,7.38,0,0,0-.51,2.91A6,6,0,0,0,1543.71,211.95Zm-12.81-73.45h1.18v1.33a3.05,3.05,0,0,1,1-1.16,2.62,2.62,0,0,1,1.41-.38,2.69,2.69,0,0,1,1.15.24,2.37,2.37,0,0,1,.85.64,2.62,2.62,0,0,1,.48,1,8.56,8.56,0,0,1,.16,1.94v5.8h-1.31v-5.74a4.75,4.75,0,0,0-.18-1.52,1.51,1.51,0,0,0-.55-.74,1.49,1.49,0,0,0-.87-.26,1.82,1.82,0,0,0-1.5.7,3.94,3.94,0,0,0-.56,2.41v5.16h-1.3Zm2.71,31.65v-1.82h1.49v1.82a3.65,3.65,0,0,1-.31,1.66,2.13,2.13,0,0,1-.91.92l-.36-.68a1.37,1.37,0,0,0,.6-.63,3.14,3.14,0,0,0,.22-1.26ZM1528.37,159v-1.86h1.41v1.46a4.42,4.42,0,0,1-.3,1.86,2.09,2.09,0,0,1-.9.93l-.33-.62a1.33,1.33,0,0,0,.57-.59,2.87,2.87,0,0,0,.24-1.19Zm-2.58-20.5h1.3v9.43h-1.3Zm0,85.29h1.3v1.84h-1.3Zm-2.9-55.18v1.54h-7.06a4.38,4.38,0,0,1,.56-2.09,11.73,11.73,0,0,1,2.16-2.73,15.56,15.56,0,0,0,2.41-2.83,3.81,3.81,0,0,0,.57-1.86,2.29,2.29,0,0,0-.58-1.62,2,2,0,0,0-2.93,0,2.89,2.89,0,0,0-.59,1.94l-1.35-.17a4.39,4.39,0,0,1,1.06-2.82,3.22,3.22,0,0,1,2.42-.95,2.92,2.92,0,0,1,2.47,1.1,4,4,0,0,1,.84,2.5,4.7,4.7,0,0,1-.66,2.38,17.49,17.49,0,0,1-2.49,3q-1.17,1.2-1.51,1.64a5,5,0,0,0-.55.87Zm-5.75-30.11,1.66,5.65q.28,1,.5,1.9.17-.75.48-1.79l1.73-5.75h1.35l-2.94,9.43h-1.22l-2.94-9.43Zm-16.11,1a3.32,3.32,0,0,1,5.18,0,5.45,5.45,0,0,1,1,3.59,5.87,5.87,0,0,1-1,3.78,3.33,3.33,0,0,1-5.19,0,7.1,7.1,0,0,1,0-7.36Zm0,19.47v-1.86h1.41v1.46a4.37,4.37,0,0,1-.3,1.86,2.11,2.11,0,0,1-.91.93l-.32-.62q.77-.39.81-1.78Zm-1.28,42.58h8.46v1.54h-3.53v11.48h-1.41V203.1h-3.52Zm1.28,46.3V246h1.41v1.46a4.37,4.37,0,0,1-.3,1.86,2.11,2.11,0,0,1-.91.93l-.32-.62q.77-.39.81-1.78Zm0-12.1a7.1,7.1,0,0,1,0-7.36,3.32,3.32,0,0,1,5.18,0,5.45,5.45,0,0,1,1,3.59,5.87,5.87,0,0,1-1,3.78,3.33,3.33,0,0,1-5.19,0Zm-10.63-97.27h1.18v1.33a3.05,3.05,0,0,1,1-1.16,2.62,2.62,0,0,1,1.41-.38,2.69,2.69,0,0,1,1.15.24,2.37,2.37,0,0,1,.85.64,2.62,2.62,0,0,1,.48,1,8.56,8.56,0,0,1,.16,1.94v5.8h-1.31v-5.74a4.75,4.75,0,0,0-.18-1.52,1.51,1.51,0,0,0-.55-.74,1.49,1.49,0,0,0-.87-.26,1.82,1.82,0,0,0-1.5.7,3.94,3.94,0,0,0-.56,2.41v5.16h-1.3Zm-1.59,63.07h7.71v1.54h-6.3v4h5.9v1.54h-5.9V213h6.55v1.54h-8Zm6.38,28a1.51,1.51,0,0,0-.55-.74,1.49,1.49,0,0,0-.87-.26,1.82,1.82,0,0,0-1.5.7,3.94,3.94,0,0,0-.56,2.41v5.16h-1.3v-9.43h1.18v1.33a3.05,3.05,0,0,1,1-1.16,2.62,2.62,0,0,1,1.41-.38,2.69,2.69,0,0,1,1.15.24,2.37,2.37,0,0,1,.85.64,2.62,2.62,0,0,1,.48,1,8.56,8.56,0,0,1,.16,1.94v5.8h-1.31v-5.74A4.75,4.75,0,0,0,1495.19,229.54Zm-14.31-90a3.19,3.19,0,0,1,2.6-1.28,3.08,3.08,0,0,1,2.5,1.26,5.75,5.75,0,0,1,1,3.65v.43h-5.77a4.07,4.07,0,0,0,.74,2.4,2,2,0,0,0,1.6.81q1.47,0,2.05-1.94l1.35.2a4.1,4.1,0,0,1-1.22,2.28,3.22,3.22,0,0,1-2.19.77,3.27,3.27,0,0,1-2.66-1.25,5.58,5.58,0,0,1-1-3.6A5.85,5.85,0,0,1,1480.88,139.56Zm-1.2,73.14q.19-.72.57-2.09l2.56-9.06h1.9v13h-1.36V203.7l-3.11,10.89H1479l-3.09-11.07v11.07h-1.36v-13h2.12l2.53,9.22Zm2.26,22.18a2,2,0,0,0,1.6.81q1.47,0,2.05-1.94l1.35.2a4.1,4.1,0,0,1-1.22,2.28,3.22,3.22,0,0,1-2.19.77,3.27,3.27,0,0,1-2.66-1.25,5.58,5.58,0,0,1-1-3.6,5.85,5.85,0,0,1,1-3.72,3.19,3.19,0,0,1,2.6-1.28,3.08,3.08,0,0,1,2.5,1.26,5.75,5.75,0,0,1,1,3.65v.43h-5.77A4.07,4.07,0,0,0,1481.94,234.89Zm-15.66-7.41a1.26,1.26,0,0,1,.85-.32,2.24,2.24,0,0,1,1.34.51l-.44,1.48a1.65,1.65,0,0,0-1-.35,1.15,1.15,0,0,0-.76.29,1.58,1.58,0,0,0-.49.82,7.38,7.38,0,0,0-.25,1.94v4.94h-1.3v-9.43h1.18v1.43A4,4,0,0,1,1466.28,227.48Zm-3.45-12.9v-13h7.71v1.54h-6.3v4h5.9v1.54h-5.9V213h6.55v1.54Zm8.82,12.79,1.66,5.65q.28,1,.5,1.9.17-.75.48-1.79l1.73-5.75h1.35l-2.94,9.43h-1.22l-2.94-9.43Zm.39-68a2.46,2.46,0,1,1,.72,1.75A2.36,2.36,0,0,1,1472,159.36Zm-.39-20.87,1.66,5.65q.28,1,.5,1.9.17-.75.48-1.79l1.73-5.75h1.35l-2.94,9.43h-1.22l-2.94-9.43Zm-7.38,0h1.18v1.43a4,4,0,0,1,.83-1.32,1.26,1.26,0,0,1,.85-.32,2.24,2.24,0,0,1,1.34.51l-.44,1.48a1.65,1.65,0,0,0-1-.35,1.15,1.15,0,0,0-.76.29,1.58,1.58,0,0,0-.49.82,7.38,7.38,0,0,0-.25,1.94v4.94h-1.3Zm2.13,26a1.89,1.89,0,0,0-1.48-.69,3.09,3.09,0,0,0-.92.18l.15-1.4.21,0a2.15,2.15,0,0,0,1.58-.59,2.12,2.12,0,0,0,.61-1.58,2.08,2.08,0,0,0-.51-1.47,1.61,1.61,0,0,0-1.24-.55,1.65,1.65,0,0,0-1.28.58,3.16,3.16,0,0,0-.66,1.76l-1.31-.28a4.31,4.31,0,0,1,1.12-2.52,3,3,0,0,1,4.31.11,3.38,3.38,0,0,1,.91,2.41,3.15,3.15,0,0,1-.38,1.57,2.77,2.77,0,0,1-1.07,1.07,2.38,2.38,0,0,1,1.05.59,3,3,0,0,1,.67,1.09,4.31,4.31,0,0,1,.26,1.53,4.14,4.14,0,0,1-1.06,2.93,3.33,3.33,0,0,1-2.53,1.14,3.08,3.08,0,0,1-2.32-1,4.22,4.22,0,0,1-1.08-2.67l1.31-.21q.41,2.57,2.07,2.57a2,2,0,0,0,1.56-.76,2.9,2.9,0,0,0,.66-2A2.69,2.69,0,0,0,1466.4,164.49Zm-5,91.09,1.31-.21q.41,2.57,2.07,2.57a2,2,0,0,0,1.56-.76,2.9,2.9,0,0,0,.66-2,2.69,2.69,0,0,0-.6-1.83,1.89,1.89,0,0,0-1.48-.69,3.09,3.09,0,0,0-.92.18l.15-1.4.21,0a2.15,2.15,0,0,0,1.58-.59,2.12,2.12,0,0,0,.61-1.58,2.08,2.08,0,0,0-.51-1.47,1.61,1.61,0,0,0-1.24-.55,1.65,1.65,0,0,0-1.28.58,3.16,3.16,0,0,0-.66,1.76l-1.31-.28a4.31,4.31,0,0,1,1.12-2.52,3,3,0,0,1,4.31.11,3.38,3.38,0,0,1,.91,2.41,3.15,3.15,0,0,1-.38,1.57,2.77,2.77,0,0,1-1.07,1.07,2.38,2.38,0,0,1,1.05.59,3,3,0,0,1,.67,1.09,4.31,4.31,0,0,1,.26,1.53,4.14,4.14,0,0,1-1.06,2.93,3.33,3.33,0,0,1-2.53,1.14,3.08,3.08,0,0,1-2.32-1A4.22,4.22,0,0,1,1461.41,255.58Zm9.38,47.88h-8v-13h7.71V292h-6.3v4h5.9v1.54h-5.9v4.43h6.55Zm2-53.47a2.46,2.46,0,1,1,1.74.72A2.37,2.37,0,0,1,1472.77,250Zm11.95,53.47h-1.36V292.57l-3.11,10.89H1479l-3.09-11.07v11.07h-1.36v-13h2.12l2.53,9.22.51,1.93q.19-.72.57-2.09l2.56-9.06h1.9Zm2-45.58a3.12,3.12,0,0,1-2.66,1.36,3.16,3.16,0,0,1-2.34-1,4.1,4.1,0,0,1-1.09-2.67l1.38-.14a3.29,3.29,0,0,0,.72,1.85,1.74,1.74,0,0,0,1.31.61,2,2,0,0,0,1.61-.86,3.7,3.7,0,0,0,.67-2.34,3.25,3.25,0,0,0-.65-2.17,2.06,2.06,0,0,0-1.64-.77,2,2,0,0,0-1.11.33,2.33,2.33,0,0,0-.82.93l-1.23-.2,1-6.69h5.3v1.53h-4.26l-.57,3.5a3,3,0,0,1,2-.82,3,3,0,0,1,2.33,1.14,4.54,4.54,0,0,1,1,3.08A5.42,5.42,0,0,1,1486.68,257.88Zm0-88.88a3.12,3.12,0,0,1-2.66,1.36,3.16,3.16,0,0,1-2.34-1,4.1,4.1,0,0,1-1.09-2.67l1.38-.14a3.29,3.29,0,0,0,.72,1.85,1.74,1.74,0,0,0,1.31.61,2,2,0,0,0,1.61-.86,3.7,3.7,0,0,0,.67-2.34,3.25,3.25,0,0,0-.65-2.17,2.06,2.06,0,0,0-1.64-.77,2,2,0,0,0-1.11.33,2.33,2.33,0,0,0-.82.93l-1.23-.2,1-6.69h5.3v1.53h-4.26l-.57,3.5a3,3,0,0,1,2-.82,3,3,0,0,1,2.33,1.14,4.54,4.54,0,0,1,1,3.08A5.42,5.42,0,0,1,1486.68,169Zm10.1,134.46h-8v-13h7.71V292h-6.3v4h5.9v1.54h-5.9v4.43h6.55Zm.89-56a19.46,19.46,0,0,0-2.72,5.22,22.22,22.22,0,0,0-1.35,6.38h-1.34a19,19,0,0,1,.52-3.81,23.09,23.09,0,0,1,1.35-4.15,18.3,18.3,0,0,1,1.85-3.36h-5.21v-1.54h6.9Zm0-88.88a19.46,19.46,0,0,0-2.72,5.22,22.22,22.22,0,0,0-1.35,6.38h-1.34a19,19,0,0,1,.52-3.81,23.09,23.09,0,0,1,1.35-4.15,18.3,18.3,0,0,1,1.85-3.36h-5.21v-1.54h6.9ZM1508.23,292h-3.53v11.48h-1.41V292h-3.52v-1.54h8.46Zm3.59-33.88a3.33,3.33,0,0,1-2.53,1.14,3.08,3.08,0,0,1-2.32-1,4.22,4.22,0,0,1-1.08-2.67l1.31-.21q.41,2.57,2.07,2.57a2,2,0,0,0,1.56-.76,2.9,2.9,0,0,0,.66-2,2.69,2.69,0,0,0-.6-1.83,1.89,1.89,0,0,0-1.48-.69,3.09,3.09,0,0,0-.92.18l.15-1.4.21,0a2.15,2.15,0,0,0,1.58-.59,2.12,2.12,0,0,0,.61-1.58,2.08,2.08,0,0,0-.51-1.47,1.61,1.61,0,0,0-1.24-.55,1.65,1.65,0,0,0-1.28.58,3.16,3.16,0,0,0-.66,1.76l-1.31-.28a4.31,4.31,0,0,1,1.12-2.52,3,3,0,0,1,4.31.11,3.38,3.38,0,0,1,.91,2.41,3.15,3.15,0,0,1-.38,1.57,2.77,2.77,0,0,1-1.07,1.07,2.38,2.38,0,0,1,1.05.59,3,3,0,0,1,.67,1.09,4.31,4.31,0,0,1,.26,1.53A4.14,4.14,0,0,1,1511.82,258.1Zm0-88.88a3.33,3.33,0,0,1-2.53,1.14,3.08,3.08,0,0,1-2.32-1,4.22,4.22,0,0,1-1.08-2.67l1.31-.21q.41,2.57,2.07,2.57a2,2,0,0,0,1.56-.76,2.9,2.9,0,0,0,.66-2,2.69,2.69,0,0,0-.6-1.83,1.89,1.89,0,0,0-1.48-.69,3.09,3.09,0,0,0-.92.18l.15-1.4.21,0a2.15,2.15,0,0,0,1.58-.59,2.12,2.12,0,0,0,.61-1.58,2.08,2.08,0,0,0-.51-1.47,1.61,1.61,0,0,0-1.24-.55,1.65,1.65,0,0,0-1.28.58,3.16,3.16,0,0,0-.66,1.76l-1.31-.28a4.31,4.31,0,0,1,1.12-2.52,3,3,0,0,1,4.31.11,3.38,3.38,0,0,1,.91,2.41A3.15,3.15,0,0,1,1512,162a2.77,2.77,0,0,1-1.07,1.07,2.38,2.38,0,0,1,1.05.59,3,3,0,0,1,.67,1.09,4.31,4.31,0,0,1,.26,1.53A4.14,4.14,0,0,1,1511.82,169.22Zm5.32,58.15,1.66,5.65q.28,1,.5,1.9.17-.75.48-1.79l1.73-5.75h1.35l-2.94,9.43h-1.22l-2.94-9.43Zm3.81,20.52a2,2,0,0,0-2.93,0,2.89,2.89,0,0,0-.59,1.94l-1.35-.17a4.39,4.39,0,0,1,1.06-2.82,3.22,3.22,0,0,1,2.42-.95,2.92,2.92,0,0,1,2.47,1.1,4,4,0,0,1,.84,2.5,4.7,4.7,0,0,1-.66,2.38,17.49,17.49,0,0,1-2.49,3q-1.17,1.2-1.51,1.64a5,5,0,0,0-.55.87h5.24V259h-7.06a4.38,4.38,0,0,1,.56-2.09,11.73,11.73,0,0,1,2.16-2.73,15.56,15.56,0,0,0,2.41-2.83,3.81,3.81,0,0,0,.57-1.86A2.29,2.29,0,0,0,1520.95,247.89Zm4.19,55.57h-8v-13h7.71V292h-6.3v4h5.9v1.54h-5.9v4.43h6.55Zm0-88.88h-8v-13h7.71v1.54h-6.3v4h5.9v1.54h-5.9V213h6.55Zm.65,12.79h1.3v9.43h-1.3Zm1.74,20.1a4.37,4.37,0,0,1-.3,1.86,2.11,2.11,0,0,1-.91.93l-.32-.62q.77-.39.81-1.78h-.69V246h1.41Zm0-88.88a4.37,4.37,0,0,1-.3,1.86,2.11,2.11,0,0,1-.91.93l-.32-.62q.77-.39.81-1.78h-.69v-1.86h1.41Zm.73,91.05a1.33,1.33,0,0,0,.57-.59,2.87,2.87,0,0,0,.24-1.19h-.69V246h1.41v1.46a4.42,4.42,0,0,1-.3,1.86,2.09,2.09,0,0,1-.9.93Zm8.28,53.81-1.42-2.71a17,17,0,0,0-1.25-2.14,2.45,2.45,0,0,0-.82-.74,2.59,2.59,0,0,0-1.1-.19h-1.63v5.78h-1.41v-13h4.73a5,5,0,0,1,2.19.36A2.77,2.77,0,0,1,1537,292a4.11,4.11,0,0,1,.45,2,3.31,3.31,0,0,1-3,3.55,3.63,3.63,0,0,1,.91.72,9.13,9.13,0,0,1,1.11,1.66l1.87,3.54Zm-3.42-75.92a2.62,2.62,0,0,1,1.41-.38,2.69,2.69,0,0,1,1.15.24,2.37,2.37,0,0,1,.85.64,2.62,2.62,0,0,1,.48,1,8.56,8.56,0,0,1,.16,1.94v5.8h-1.31v-5.74a4.75,4.75,0,0,0-.18-1.52,1.51,1.51,0,0,0-.55-.74,1.49,1.49,0,0,0-.87-.26,1.82,1.82,0,0,0-1.5.7,3.94,3.94,0,0,0-.56,2.41v5.16h-1.3v-9.43h1.18v1.33A3.05,3.05,0,0,1,1533.12,227.54Zm.49,31.48V257.2h1.49V259a3.65,3.65,0,0,1-.31,1.66,2.13,2.13,0,0,1-.91.92l-.36-.68a1.37,1.37,0,0,0,.6-.63,3.14,3.14,0,0,0,.22-1.26Zm2.93-44.44-1.42-2.71a17,17,0,0,0-1.25-2.14,2.45,2.45,0,0,0-.82-.74,2.59,2.59,0,0,0-1.1-.19h-1.63v5.78h-1.41v-13h4.73a5,5,0,0,1,2.19.36,2.77,2.77,0,0,1,1.16,1.21,4.11,4.11,0,0,1,.45,2,3.31,3.31,0,0,1-3,3.55,3.63,3.63,0,0,1,.91.72,9.13,9.13,0,0,1,1.11,1.66l1.87,3.54Zm5,21.18a7.1,7.1,0,0,1,0-7.36,3.32,3.32,0,0,1,5.18,0,5.45,5.45,0,0,1,1,3.59,5.87,5.87,0,0,1-1,3.78,3.33,3.33,0,0,1-5.19,0ZM1551.65,259h-7.06a4.38,4.38,0,0,1,.56-2.09,11.73,11.73,0,0,1,2.16-2.73,15.56,15.56,0,0,0,2.41-2.83,3.81,3.81,0,0,0,.57-1.86,2.29,2.29,0,0,0-.58-1.62,2,2,0,0,0-2.93,0,2.89,2.89,0,0,0-.59,1.94l-1.35-.17a4.39,4.39,0,0,1,1.06-2.82,3.22,3.22,0,0,1,2.42-.95,2.92,2.92,0,0,1,2.47,1.1,4,4,0,0,1,.84,2.5,4.7,4.7,0,0,1-.66,2.38,17.49,17.49,0,0,1-2.49,3q-1.17,1.2-1.51,1.64a5,5,0,0,0-.55.87h5.24Zm0-88.88h-7.06a4.38,4.38,0,0,1,.56-2.09,11.73,11.73,0,0,1,2.16-2.73,15.56,15.56,0,0,0,2.41-2.83,3.81,3.81,0,0,0,.57-1.86,2.29,2.29,0,0,0-.58-1.62,2,2,0,0,0-2.93,0,2.89,2.89,0,0,0-.59,1.94l-1.35-.17a4.39,4.39,0,0,1,1.06-2.82,3.22,3.22,0,0,1,2.42-.95,2.92,2.92,0,0,1,2.47,1.1,4,4,0,0,1,.84,2.5,4.7,4.7,0,0,1-.66,2.38,17.49,17.49,0,0,1-2.49,3q-1.17,1.2-1.51,1.64a5,5,0,0,0-.55.87h5.24ZM1619.55,159v-1.86H1621v1.46a4.37,4.37,0,0,1-.3,1.86,2.11,2.11,0,0,1-.91.93l-.32-.62q.77-.39.81-1.78Zm-15.24,5.5a1.89,1.89,0,0,0-1.48-.69,3.09,3.09,0,0,0-.92.18l.15-1.4.21,0a2.15,2.15,0,0,0,1.58-.59,2.12,2.12,0,0,0,.61-1.58,2.08,2.08,0,0,0-.51-1.47,1.61,1.61,0,0,0-1.24-.55,1.65,1.65,0,0,0-1.28.58,3.16,3.16,0,0,0-.66,1.76l-1.31-.28a4.31,4.31,0,0,1,1.12-2.52,3,3,0,0,1,4.31.11,3.38,3.38,0,0,1,.91,2.41,3.15,3.15,0,0,1-.38,1.57,2.77,2.77,0,0,1-1.07,1.07,2.38,2.38,0,0,1,1.05.59,3,3,0,0,1,.67,1.09,4.31,4.31,0,0,1,.26,1.53,4.14,4.14,0,0,1-1.06,2.93,3.33,3.33,0,0,1-2.53,1.14,3.08,3.08,0,0,1-2.32-1,4.22,4.22,0,0,1-1.08-2.67l1.31-.21q.41,2.57,2.07,2.57a2,2,0,0,0,1.56-.76,2.9,2.9,0,0,0,.66-2A2.69,2.69,0,0,0,1604.31,164.49Zm7.48-2.35a2.63,2.63,0,0,1,1.45-.44,2.81,2.81,0,0,1,2.22,1.15,4.7,4.7,0,0,1,.95,3.08,5.73,5.73,0,0,1-.47,2.37,3.61,3.61,0,0,1-1.22,1.57,2.86,2.86,0,0,1-1.64.51,3.16,3.16,0,0,1-2.66-1.46q-1-1.46-1-4.86,0-3.77,1.07-5.37a3.21,3.21,0,0,1,2.75-1.6,2.75,2.75,0,0,1,2,.83,3.93,3.93,0,0,1,1,2.4l-1.3.12a3.09,3.09,0,0,0-.55-1.42,1.59,1.59,0,0,0-1.26-.62,2.08,2.08,0,0,0-1.83,1.42,8.69,8.69,0,0,0-.6,3.62A3.36,3.36,0,0,1,1611.79,162.14Zm-.84,39.6V203a19.46,19.46,0,0,0-2.72,5.22,22.22,22.22,0,0,0-1.35,6.38h-1.34a19,19,0,0,1,.52-3.81,23.09,23.09,0,0,1,1.35-4.15,18.3,18.3,0,0,1,1.85-3.36h-5.21v-1.54ZM1594.48,159v-1.86h1.41v1.46a4.37,4.37,0,0,1-.3,1.86,2.11,2.11,0,0,1-.91.93l-.32-.62q.77-.39.81-1.78Zm-3.81.67a11.18,11.18,0,0,1,.47,3.68,13.42,13.42,0,0,1-.51,4.16,4.55,4.55,0,0,1-1.37,2.17,3.05,3.05,0,0,1-1.94.68,2.74,2.74,0,0,1-2-.83,3.86,3.86,0,0,1-1-2.4l1.26-.14q.3,2.06,1.78,2.06a1.82,1.82,0,0,0,1.19-.45,3.45,3.45,0,0,0,.91-1.59,8.63,8.63,0,0,0,.37-2.67V164a3.29,3.29,0,0,1-1.1,1.25,2.52,2.52,0,0,1-1.41.46,2.84,2.84,0,0,1-2.25-1.14,4.75,4.75,0,0,1-.95-3.12,4.87,4.87,0,0,1,1-3.22,3,3,0,0,1,4.24-.52A4.17,4.17,0,0,1,1590.67,159.67Zm.07,48.5a11,11,0,0,1-.88,4.95,2.8,2.8,0,0,1-2.61,1.69,2.89,2.89,0,0,1-2.5-1.49q-1-1.49-1-5.15a11,11,0,0,1,.88-5,2.8,2.8,0,0,1,2.61-1.69,2.72,2.72,0,0,1,2.41,1.37A10,10,0,0,1,1590.74,208.16Zm-8.66-68.6a3.19,3.19,0,0,1,2.6-1.28,3.08,3.08,0,0,1,2.5,1.26,5.75,5.75,0,0,1,1,3.65v.43h-5.77a4.07,4.07,0,0,0,.74,2.4,2,2,0,0,0,1.6.81q1.47,0,2.05-1.94l1.35.2a4.1,4.1,0,0,1-1.22,2.28,3.22,3.22,0,0,1-2.19.77,3.27,3.27,0,0,1-2.66-1.25,5.58,5.58,0,0,1-1-3.6A5.85,5.85,0,0,1,1582.08,139.56Zm-8,72.93a11.73,11.73,0,0,1,2.16-2.73,15.56,15.56,0,0,0,2.41-2.83,3.81,3.81,0,0,0,.57-1.86,2.29,2.29,0,0,0-.58-1.62,2,2,0,0,0-2.93,0,2.89,2.89,0,0,0-.59,1.94l-1.35-.17a4.39,4.39,0,0,1,1.06-2.82,3.22,3.22,0,0,1,2.42-.95,2.92,2.92,0,0,1,2.47,1.1,4,4,0,0,1,.84,2.5,4.7,4.7,0,0,1-.66,2.38,17.49,17.49,0,0,1-2.49,3q-1.17,1.2-1.51,1.64a5,5,0,0,0-.55.87h5.24v1.54h-7.06A4.38,4.38,0,0,1,1574.1,212.49Zm-7.9-54.87a2.46,2.46,0,1,1-.72,1.74A2.37,2.37,0,0,1,1566.2,157.62Zm-10.35,2.72a8,8,0,0,0,1.91-1.52,5.78,5.78,0,0,0,1.17-1.75h.85v13.07h-1.31V160a7,7,0,0,1-1.22,1.09,7.86,7.86,0,0,1-1.4.84Zm3.93,98.68h-1.31V248.84a7,7,0,0,1-1.22,1.09,7.86,7.86,0,0,1-1.4.84v-1.54a8,8,0,0,0,1.91-1.52,5.78,5.78,0,0,0,1.17-1.75h.85Zm-2.66-22h-1.06l3.09-13.45h1.07Zm6.28-24.22a4.56,4.56,0,0,1-7.59-.05,7.65,7.65,0,0,1-1.3-4.5,7.89,7.89,0,0,1,1.46-5.12,4.53,4.53,0,0,1,3.65-1.79,4.45,4.45,0,0,1,2.58.8,5.39,5.39,0,0,1,1.84,2.32,8.85,8.85,0,0,1,.68,3.63A7.87,7.87,0,0,1,1563.39,212.8Zm6.29,37.19a2.47,2.47,0,1,1,.72-1.75A2.38,2.38,0,0,1,1569.68,250Zm3.57-18.78a2.59,2.59,0,0,0-1.1-.19h-1.63v5.78h-1.41v-13h4.73a5,5,0,0,1,2.19.36,2.77,2.77,0,0,1,1.16,1.21,4.11,4.11,0,0,1,.45,2,3.31,3.31,0,0,1-3,3.55,3.63,3.63,0,0,1,.91.72,9.13,9.13,0,0,1,1.11,1.66l1.87,3.54h-1.78l-1.42-2.71a17,17,0,0,0-1.25-2.14A2.45,2.45,0,0,0,1573.25,231.21Zm6.85,26.34a2.8,2.8,0,0,1-2.61,1.69,2.89,2.89,0,0,1-2.5-1.49q-1-1.49-1-5.15a11,11,0,0,1,.88-5,2.8,2.8,0,0,1,2.61-1.69,2.72,2.72,0,0,1,2.41,1.37,10,10,0,0,1,1.07,5.28A11,11,0,0,1,1580.1,257.55Zm0-88.88a2.8,2.8,0,0,1-2.61,1.69,2.89,2.89,0,0,1-2.5-1.49q-1-1.49-1-5.15a11,11,0,0,1,.88-5,2.8,2.8,0,0,1,2.61-1.69,2.72,2.72,0,0,1,2.41,1.37,10,10,0,0,1,1.07,5.28A11,11,0,0,1,1580.1,168.67Zm2,67.09a5.58,5.58,0,0,1-1-3.6,5.85,5.85,0,0,1,1-3.72,3.19,3.19,0,0,1,2.6-1.28,3.08,3.08,0,0,1,2.5,1.26,5.75,5.75,0,0,1,1,3.65v.43h-5.77a4.07,4.07,0,0,0,.74,2.4,2,2,0,0,0,1.6.81q1.47,0,2.05-1.94l1.35.2a4.1,4.1,0,0,1-1.22,2.28,3.22,3.22,0,0,1-2.19.77A3.27,3.27,0,0,1,1582.07,235.77Zm8.56,20.63a4.55,4.55,0,0,1-1.37,2.17,3.05,3.05,0,0,1-1.94.68,2.74,2.74,0,0,1-2-.83,3.86,3.86,0,0,1-1-2.4l1.26-.14q.3,2.06,1.78,2.06a1.82,1.82,0,0,0,1.19-.45,3.45,3.45,0,0,0,.91-1.59,8.63,8.63,0,0,0,.37-2.67v-.32a3.29,3.29,0,0,1-1.1,1.25,2.52,2.52,0,0,1-1.41.46,2.84,2.84,0,0,1-2.25-1.14,4.75,4.75,0,0,1-.95-3.12,4.87,4.87,0,0,1,1-3.22,3,3,0,0,1,4.24-.52,4.17,4.17,0,0,1,1.33,1.94,11.18,11.18,0,0,1,.47,3.68A13.42,13.42,0,0,1,1590.63,256.39Zm5.26-8.92a4.37,4.37,0,0,1-.3,1.86,2.11,2.11,0,0,1-.91.93l-.32-.62q.77-.39.81-1.78h-.69V246h1.41Zm1.94-10.67h-1.23v-1.19a2.65,2.65,0,0,1-.91,1,2.19,2.19,0,0,1-1.21.36,2.93,2.93,0,0,1-2.37-1.29,5.82,5.82,0,0,1-1-3.63,7.41,7.41,0,0,1,.44-2.73,3.66,3.66,0,0,1,1.18-1.66,2.73,2.73,0,0,1,1.64-.54,2.25,2.25,0,0,1,1.2.34,2.73,2.73,0,0,1,.92,1v-4.67h1.32Zm1-22.22h-1.31V204.4a7,7,0,0,1-1.22,1.09,7.86,7.86,0,0,1-1.4.84v-1.54a8,8,0,0,0,1.91-1.52,5.78,5.78,0,0,0,1.17-1.75h.85Zm6.44,43.52a3.33,3.33,0,0,1-2.53,1.14,3.08,3.08,0,0,1-2.32-1,4.22,4.22,0,0,1-1.08-2.67l1.31-.21q.41,2.57,2.07,2.57a2,2,0,0,0,1.56-.76,2.9,2.9,0,0,0,.66-2,2.69,2.69,0,0,0-.6-1.83,1.89,1.89,0,0,0-1.48-.69,3.09,3.09,0,0,0-.92.18l.15-1.4.21,0a2.15,2.15,0,0,0,1.58-.59,2.12,2.12,0,0,0,.61-1.58,2.08,2.08,0,0,0-.51-1.47,1.61,1.61,0,0,0-1.24-.55,1.65,1.65,0,0,0-1.28.58,3.16,3.16,0,0,0-.66,1.76l-1.31-.28a4.31,4.31,0,0,1,1.12-2.52,3,3,0,0,1,4.31.11,3.38,3.38,0,0,1,.91,2.41,3.15,3.15,0,0,1-.38,1.57,2.77,2.77,0,0,1-1.07,1.07,2.38,2.38,0,0,1,1.05.59,3,3,0,0,1,.67,1.09,4.31,4.31,0,0,1,.26,1.53A4.14,4.14,0,0,1,1605.25,258.1Zm10.67-.93a3.61,3.61,0,0,1-1.22,1.57,2.86,2.86,0,0,1-1.64.51,3.16,3.16,0,0,1-2.66-1.46q-1-1.46-1-4.86,0-3.77,1.07-5.37a3.21,3.21,0,0,1,2.75-1.6,2.75,2.75,0,0,1,2,.83,3.93,3.93,0,0,1,1,2.4l-1.3.12a3.09,3.09,0,0,0-.55-1.42,1.59,1.59,0,0,0-1.26-.62,2.08,2.08,0,0,0-1.83,1.42,8.69,8.69,0,0,0-.6,3.62,3.36,3.36,0,0,1,1.14-1.29,2.63,2.63,0,0,1,1.45-.44,2.81,2.81,0,0,1,2.22,1.15,4.7,4.7,0,0,1,.95,3.08A5.73,5.73,0,0,1,1615.92,257.17Zm-1-20.37h-1.36l-1.23-5.65-.29-1.61-1.56,7.25h-1.37l-2.37-9.43H1608l1.23,5.44.46,2,.41-1.94,1.23-5.52h1.35l1.15,5.47.39,1.8.44-1.82,1.32-5.45h1.28Zm0-88.88h-1.36l-1.23-5.65-.29-1.61-1.56,7.25h-1.37l-2.37-9.43H1608l1.23,5.44.46,2,.41-1.94,1.23-5.52h1.35l1.15,5.47.39,1.8.44-1.82,1.32-5.45h1.28Zm6.08,99.55a4.37,4.37,0,0,1-.3,1.86,2.11,2.11,0,0,1-.91.93l-.32-.62q.77-.39.81-1.78h-.69V246H1621Zm.56-10.67h-1.3v-9.43h1.3Zm0-11.18h-1.3v-1.84h1.3Zm0-77.7h-1.3v-9.43h1.3Zm1.7,99.55a4.42,4.42,0,0,1-.3,1.86,2.09,2.09,0,0,1-.9.93l-.33-.62a1.33,1.33,0,0,0,.57-.59,2.87,2.87,0,0,0,.24-1.19h-.69V246h1.41Zm0-88.88a4.42,4.42,0,0,1-.3,1.86,2.09,2.09,0,0,1-.9.93l-.33-.62a1.33,1.33,0,0,0,.57-.59,2.87,2.87,0,0,0,.24-1.19h-.69v-1.86h1.41Zm8.39,78.21h-1.31v-5.74a4.75,4.75,0,0,0-.18-1.52,1.51,1.51,0,0,0-.55-.74,1.49,1.49,0,0,0-.87-.26,1.82,1.82,0,0,0-1.5.7,3.94,3.94,0,0,0-.56,2.41v5.16h-1.3v-9.43h1.18v1.33a3.05,3.05,0,0,1,1-1.16,2.62,2.62,0,0,1,1.41-.38,2.69,2.69,0,0,1,1.15.24,2.37,2.37,0,0,1,.85.64,2.62,2.62,0,0,1,.48,1,8.56,8.56,0,0,1,.16,1.94Zm0-88.88h-1.31v-5.74a4.75,4.75,0,0,0-.18-1.52,1.51,1.51,0,0,0-.55-.74,1.49,1.49,0,0,0-.87-.26,1.82,1.82,0,0,0-1.5.7,3.94,3.94,0,0,0-.56,2.41v5.16h-1.3v-9.43h1.18v1.33a3.05,3.05,0,0,1,1-1.16,2.62,2.62,0,0,1,1.41-.38,2.69,2.69,0,0,1,1.15.24,2.37,2.37,0,0,1,.85.64,2.62,2.62,0,0,1,.48,1,8.56,8.56,0,0,1,.16,1.94Zm10.48,84.57h-5.77a4.07,4.07,0,0,0,.74,2.4,2,2,0,0,0,1.6.81q1.47,0,2.05-1.94l1.35.2a4.1,4.1,0,0,1-1.22,2.28,3.22,3.22,0,0,1-2.19.77,3.27,3.27,0,0,1-2.66-1.25,5.58,5.58,0,0,1-1-3.6,5.85,5.85,0,0,1,1-3.72,3.19,3.19,0,0,1,2.6-1.28,3.08,3.08,0,0,1,2.5,1.26,5.75,5.75,0,0,1,1,3.65Zm0-88.88h-5.77a4.07,4.07,0,0,0,.74,2.4,2,2,0,0,0,1.6.81q1.47,0,2.05-1.94l1.35.2a4.1,4.1,0,0,1-1.22,2.28,3.22,3.22,0,0,1-2.19.77,3.27,3.27,0,0,1-2.66-1.25,5.58,5.58,0,0,1-1-3.6,5.85,5.85,0,0,1,1-3.72,3.19,3.19,0,0,1,2.6-1.28,3.08,3.08,0,0,1,2.5,1.26,5.75,5.75,0,0,1,1,3.65Z" transform="translate(-4.24 -3.38)"/><path d="M1577.45,158.39a1.74,1.74,0,0,0-1.49,1.09,10,10,0,0,0-.6,4.24A9.83,9.83,0,0,0,1576,168a1.79,1.79,0,0,0,1.56,1.08A1.75,1.75,0,0,0,1579,168a15.15,15.15,0,0,0,0-8.5A1.8,1.8,0,0,0,1577.45,158.39Z" transform="translate(-4.24 -3.38)"/><path d="M1587.63,247.26a1.9,1.9,0,0,0-1.51.85,3.61,3.61,0,0,0-.66,2.28,3.09,3.09,0,0,0,.63,2,1.91,1.91,0,0,0,1.51.76,1.82,1.82,0,0,0,1.48-.76,3.42,3.42,0,0,0,.6-2.17,3.49,3.49,0,0,0-.62-2.2A1.8,1.8,0,0,0,1587.63,247.26Z" transform="translate(-4.24 -3.38)"/><path d="M1586.27,229.35a1.91,1.91,0,0,0-3.11-.15,3.21,3.21,0,0,0-.68,2h4.31A3.59,3.59,0,0,0,1586.27,229.35Z" transform="translate(-4.24 -3.38)"/><path class="cls-2" d="M1621.52,136.75h0l-1.3,0v0Z" transform="translate(-4.24 -3.38)"/></svg>