<?xml version="1.0" encoding="utf-8"?>
<!-- Generator: Adobe Illustrator 21.0.0, SVG Export Plug-In . SVG Version: 6.00 Build 0)  -->
<svg version="1.1" id="Layer_1" xmlns="http://www.w3.org/2000/svg" xmlns:xlink="http://www.w3.org/1999/xlink" x="0px" y="0px"
	 viewBox="0 0 114 112" style="enable-background:new 0 0 114 112;" xml:space="preserve">
<style type="text/css">
	.st0{fill:#84988D;}
</style>
<g>
	<g>
		<g>
			<path class="st0" d="M31.1,40.2c-0.7,1.3-1.3,2.4-1.5,2.8c-0.4-0.2-1.9-1.1-2.9-1.6c-0.1-0.2,0-0.5,0.3-0.7
				c1.3,0.5,2,0.5,2.6-0.2c0.4-0.5,0.7-0.9,1.1-1.6l0.6-1c0.5-0.8,0.4-0.9-0.7-1.5l-3.5-2c-0.5-0.3-0.5-0.3-0.8,0.2l-0.7,1.2
				c-1,1.7-1.1,2-0.4,2.7l0.6,0.5c0.1,0.2-0.1,0.6-0.4,0.6c-0.5-0.3-1.2-0.8-1.9-1.2c-0.7-0.4-1.5-0.8-2.1-1.1
				c-0.1-0.2,0.1-0.6,0.3-0.6l0.9,0.3c0.9,0.3,1.2,0,2.1-1.7l0.7-1.2c0.3-0.5,0.2-0.5-0.3-0.8l-2.8-1.6c-2.1-1.2-2.2-1-2.9-0.2
				L19,32.5c-0.2,0.1-0.6-0.2-0.5-0.4c0.8-1.2,1.3-2.1,1.8-3c0.5-0.9,1-1.8,1.5-2.7c0.2-0.1,0.5,0.1,0.6,0.3L22,27.2
				c-0.4,1-0.4,1.2,1.6,2.4l7.3,4.2c2.1,1.2,2.2,1,2.9,0.2l0.2-0.2c0.2-0.1,0.6,0.2,0.6,0.4c-0.4,0.7-1,1.5-1.5,2.4L31.1,40.2z"/>
		</g>
		<g>
			<path class="st0" d="M20.2,42c0.1-0.4,0.1-0.5-0.2-0.5C18,41,16.1,42,15.7,44c-0.2,0.9-0.1,1.7,0.6,2.4c0,0.2-0.3,0.4-0.5,0.4
				c-1.6-1.2-1.9-2.9-1.6-4.3c0.6-2.6,2.9-3.8,5.4-3.3c2.5,0.6,4.5,2.8,3.9,5.8c-0.4,1.6-1.8,3.1-3.7,2.7c-0.2,0-0.3-0.1-0.5-0.2
				c-0.2-0.2-0.1-0.7,0.1-1.6L20.2,42z M20.6,44.2c-0.1,0.6-0.1,0.9-0.1,1.1c0.1,0.2,0.2,0.3,0.4,0.3c0.8,0.2,1.6-0.2,1.8-1.1
				c0.3-1.5-1-2.5-1.4-2.6c-0.1,0-0.2,0-0.2,0.3L20.6,44.2z"/>
		</g>
		<g>
			<path class="st0" d="M18.7,52c0-0.4,0-0.5-0.3-0.5c-2,0.1-3.6,1.5-3.6,3.5c0,0.9,0.3,1.6,1.2,2.1c0.1,0.2-0.1,0.5-0.3,0.5
				C13.8,57,13.1,55.4,13,54c-0.1-2.6,1.8-4.4,4.4-4.5c2.6-0.1,5.1,1.6,5.2,4.6c0.1,1.7-1,3.4-3,3.5c-0.2,0-0.3,0-0.5-0.1
				c-0.2-0.1-0.3-0.7-0.3-1.6L18.7,52z M19.6,54.1c0,0.7,0.1,1,0.2,1.1c0.1,0.1,0.3,0.2,0.5,0.2c0.8,0,1.5-0.6,1.4-1.6
				c0-1.5-1.5-2.2-2-2.2c-0.1,0-0.2,0-0.2,0.3L19.6,54.1z"/>
		</g>
		<g>
			<path class="st0" d="M26.2,58.7c1.5-0.4,1.6-0.5,1.8-1.1l0.1-0.3c0-0.2,0.4-0.3,0.5-0.1c0.5,0.8,1.3,1.8,1.9,2.6
				c0.1,0.1,0,0.3-0.1,0.4c-0.9,0.2-2.2,0.6-3.2,0.9l-9.6,2.8c-1.6,0.5-1.8,0.6-1.7,1.4l0.1,0.5c-0.1,0.2-0.5,0.3-0.6,0.1
				c-0.2-0.9-0.4-1.7-0.6-2.5c-0.2-0.7-0.4-1.5-0.7-2.3c0-0.2,0.4-0.3,0.6-0.2l0.2,0.4c0.3,0.7,0.6,0.7,2.2,0.3L26.2,58.7z"/>
		</g>
		<g>
			<path class="st0" d="M20.3,71c-1.5,0.8-1.7,1-1.4,1.7l0.1,0.4c-0.1,0.2-0.4,0.4-0.6,0.3c-0.3-0.8-0.7-1.5-1.1-2.2
				c-0.3-0.7-0.7-1.3-1.2-2.1c0-0.2,0.3-0.4,0.6-0.3L17,69c0.5,0.6,0.7,0.6,2.2-0.2l3-1.5c0.9-0.5,1.1-0.6,1.2-1.3l0-0.3
				c0.1-0.1,0.3-0.3,0.5-0.2c0.8,0.9,1.8,1.7,2.4,2.1c0,0.1,0,0.3,0,0.4c-0.7,0.3-1.7,0.8-2.5,1.2L20.3,71z M28,64.1
				c0.7-0.4,1.5-0.1,1.8,0.6c0.4,0.7,0.1,1.5-0.6,1.9c-0.7,0.4-1.5,0.1-1.8-0.6C27,65.2,27.3,64.4,28,64.1z"/>
		</g>
		<g>
			<path class="st0" d="M24.3,77.6c-1.3,1.1-1.4,1.3-1,2l0.2,0.3c0,0.2-0.3,0.5-0.5,0.4c-0.5-0.6-1-1.2-1.5-1.9
				c-0.5-0.5-1-1.1-1.7-1.8c-0.1-0.2,0.2-0.5,0.5-0.5l0.4,0.3c0.6,0.5,0.8,0.4,2.1-0.7l2.5-2.2c0.8-0.7,1-0.9,0.9-1.5L26,71.8
				c0-0.1,0.3-0.3,0.4-0.3c0.8,0.5,2.1,1.1,2.9,1.4c0.1,0.1,0.1,0.3,0.1,0.3c-0.4,0.2-0.7,0.5-0.8,0.7c-0.1,0.1-0.1,0.2,0,0.3
				c1.1,0.4,2,0.5,2.9,1.6c1.2,1.4,0.8,2.9-0.5,4l-2.6,2.3c-1.3,1.1-1.4,1.4-1,2l0.3,0.4c0,0.2-0.3,0.5-0.5,0.4
				c-0.6-0.7-1.1-1.3-1.6-2c-0.5-0.6-1-1.1-1.6-1.7c-0.1-0.2,0.2-0.5,0.5-0.5l0.3,0.2c0.6,0.5,0.9,0.4,2.1-0.7l2.4-2.1
				c0.9-0.8,1.3-1.7,0.4-2.7c-0.5-0.5-1.1-0.7-1.5-0.7c-0.5,0-0.7,0.2-1.3,0.7L24.3,77.6z"/>
		</g>
		<g>
			<path class="st0" d="M40.3,85.3c-0.1,0.2-0.2,0.5-0.4,0.9c-1,1.6-3.1,2.5-5.5,0.9c-0.2-0.1-0.5-0.3-0.7-0.5c-0.4,0-0.8,0-1.1,0.4
				c-0.2,0.4-0.2,0.9,0.6,1.4c0.6,0.4,1.3,0.8,2.1,1.3c1.4,0.9,3,2.2,1.7,4.3c-0.6,1-1.9,1.5-2.7,1.6c-1.3,0.2-2.9,0-4.5-1.1
				c-2.7-1.7-2.8-3.5-2.2-4.5c0.2-0.3,0.4-0.5,0.8-0.7c0.3-0.1,1.3,0,1.7-0.1c0.2,0,0.5-0.2,0.4-0.3c-0.5-0.7-0.7-1.6-0.3-2.4
				c0.1-0.2,0.3-0.3,0.6-0.3c0.4,0,1.7,0,1.9-0.2c0-0.1,0.1-0.2,0.1-0.3c-0.5-0.7-0.8-1.9,0-3.2c1.1-1.7,3.4-2.1,5.4-0.8
				c0.8,0.5,1.3,1.1,1.7,1.6c0.3,0.4,0.4,0.7,0.7,0.8l1.9,1.2c0,0.1,0,0.3-0.1,0.4c-0.2,0.4-0.5,0.5-0.7,0.5L40.3,85.3z M32.6,90.4
				c-0.7-0.4-1.1-0.6-1.5-0.6c-0.5,0-0.9,0.2-1.2,0.7c-0.7,1.2-0.2,2.6,1.3,3.5c1.6,1,3,0.9,3.7-0.2c0.6-1,0-2-1.2-2.8L32.6,90.4z
				 M35.2,86.6c0.7,0.5,1.7,0.2,2.5-1.2c0.8-1.3,0.9-2.6,0-3.1c-0.7-0.4-1.7-0.2-2.5,1.2C34.3,85,34.5,86.2,35.2,86.6z"/>
		</g>
		<g>
			<path class="st0" d="M69.6,91c0.1,0.7,0.6,3.4,0.8,3.9c-0.1,0.3-0.4,0.4-0.7,0.5c-0.4-0.4-1.2-1-3.2-2.6l-6.3-5
				c-1.7-1.4-2.6-2.1-3.1-2.3c-0.1,0,0,0.3,0.2,1.4l0.8,4.4c0.3,1.7,0.7,3.7,1.2,4.3c0.3,0.3,0.7,0.4,1.2,0.3l0.5,0
				c0.2,0.1,0.3,0.5,0.1,0.7c-0.8,0.1-1.7,0.3-2.5,0.4c-0.9,0.2-1.5,0.3-2.3,0.5c-0.2-0.1-0.3-0.4-0.2-0.6l0.5-0.2
				c0.4-0.2,0.8-0.3,0.9-0.7c0.2-0.7-0.2-2.7-0.5-4.4l-1-5.3c-0.3-1.7-0.4-2.1-1.2-2.6c-0.3-0.2-0.9-0.2-1.3-0.2l-0.3,0
				c-0.2-0.1-0.2-0.6,0-0.7c0.9-0.1,2.1-0.3,2.6-0.4c0.5-0.1,1-0.2,1.5-0.3c0.6,0.9,3.5,3.3,4.4,4l2.7,2c1.1,0.9,3.6,2.8,3.9,2.9
				c0.1-0.1,0-0.2,0-0.5l-0.8-4.3c-0.3-1.7-0.7-3.7-1.2-4.3c-0.3-0.3-0.7-0.4-1.2-0.3l-0.5,0c-0.2-0.1-0.3-0.5-0.1-0.7
				c0.9-0.1,1.7-0.2,2.6-0.4c1-0.2,1.5-0.3,2.3-0.5c0.2,0.1,0.3,0.5,0.2,0.6L69,80.5c-0.4,0.2-0.8,0.3-0.9,0.7
				c-0.2,0.7,0.2,2.7,0.5,4.5L69.6,91z"/>
		</g>
		<g>
			<path class="st0" d="M79.5,86.9c0.6,1.2,1.2,1.6,1.9,1.2c0.3-0.2,0.5-0.6,0.5-0.6c0.1-0.1,0.4,0.1,0.4,0.3
				c-0.1,0.8-0.8,1.6-1.5,2c-0.5,0.3-1.1,0.5-1.7,0.3C79,90,78.8,89.9,78.7,90c-0.1,0.1-0.2,0.2-0.4,0.6c-0.2,0.5-0.7,1.1-1.4,1.5
				c-1.3,0.8-2.5,0.2-3.1-0.7c-0.4-0.7-0.5-1.5,0.6-2.8c0.5-0.6,1.1-1.3,1.7-2c0.3-0.4,0.3-0.6,0.2-0.8L76,85.2
				c-0.5-1-1.3-1.7-2.3-1.2c-0.5,0.3-0.8,0.9-0.5,1.5c0.2,0.4,0.2,0.7,0,0.9c-0.2,0.3-0.6,0.8-1.1,1.1c-0.3,0.2-0.5,0.1-0.6-0.1
				c-0.1-0.2-0.3-0.7,0-1.7c0.3-0.9,1.3-2.4,2.3-3c1.5-0.9,2.9-0.7,3.9,1L79.5,86.9z M77.2,87.3c-0.1-0.2-0.3-0.3-0.3-0.2
				c-0.2,0.1-0.5,0.4-0.7,0.7c-0.4,0.5-0.8,1.1-0.3,1.9c0.3,0.5,1,0.9,1.8,0.5c0.7-0.4,0.6-1,0.4-1.5L77.2,87.3z"/>
		</g>
		<g>
			<path class="st0" d="M82.2,78.1c-0.3,0.3-0.3,0.3,0.2,0.9l2.4,2.5c1,1,2,1.8,3.1,0.8c0.3-0.3,0.4-0.6,0.5-1
				c0.2-0.1,0.4-0.1,0.5,0.1c0.1,0.8-0.2,1.9-1.2,2.9c-1.6,1.5-2.7,0.9-3.8-0.3l-3.2-3.3c-0.6-0.6-0.6-0.6-0.9-0.3l-0.6,0.5
				c-0.2,0.1-0.5-0.2-0.5-0.4c0.3-0.8,0.5-1.3,0.6-1.9c0.1-0.5,0.1-1.2-0.1-1.9c0.1-0.2,0.3-0.4,0.5-0.4l0.9,1
				c0.3,0.3,0.3,0.3,0.6,0l1.6-1.6c0.1,0,0.3,0.1,0.5,0.2c0.2,0.2,0.3,0.4,0.2,0.6L82.2,78.1z"/>
		</g>
		<g>
			<path class="st0" d="M93.5,70.2c1.1,0.6,2.1,1.2,2.4,0.7c0.2-0.3,0.3-0.6,0.3-0.9c0.2-0.1,0.6,0.1,0.6,0.4
				c-0.4,0.9-1,2.6-1.1,3.7c-0.1,0.1-0.2,0.1-0.3,0.1c-0.2-0.2-0.5-0.4-0.7-0.5c-0.2-0.1-0.3,0-0.3,0.1c0,1.1,0,2.2-0.6,3.2
				c-1,1.8-2.3,1.8-4,0.9L86.8,76c-1.4-0.8-1.6-0.8-2-0.4l-0.2,0.2c-0.2,0.1-0.5-0.1-0.5-0.3c0.7-1.2,1.1-2.4,1.2-2.9
				c0.1-0.1,0.2-0.1,0.3-0.1c0.2,0.2,0.7,0.5,1.6,1l3,1.7c1.2,0.7,2.4,1.1,3.2-0.3c0.3-0.5,0.4-1.1,0.2-1.6c-0.1-0.3-0.2-0.4-1-0.9
				l-3-1.7c-1.3-0.7-1.4-0.6-2.1,0L87.4,71c-0.2,0.1-0.5-0.1-0.5-0.3c0.7-1.3,1.4-2.8,1.4-3.3c0.1-0.1,0.2-0.1,0.3-0.1
				c0.4,0.3,0.9,0.6,1.6,1L93.5,70.2z"/>
		</g>
		<g>
			<path class="st0" d="M92.8,64.6c-1-0.3-1.2-0.3-1.7,0.1L90.8,65c-0.1,0-0.4,0-0.5-0.2c0-1-0.2-2.3-0.4-3.1c0-0.1,0.1-0.2,0.3-0.3
				c0.4,0.1,0.8,0.3,1,0.3c0.2,0,0.3,0,0.3-0.1c-0.3-0.8-0.8-1.7-0.5-2.5c0.2-0.8,0.8-1.1,1.4-0.9c0.8,0.2,1.1,1,0.9,1.6
				c-0.1,0.2-0.2,0.4-0.3,0.5c-0.5,0.4-0.7,0.8-0.7,0.9c-0.1,0.5,0.3,0.8,1.4,1.1l3,0.8c1.6,0.4,1.9,0.4,2.2-0.3l0.3-0.8
				c0.2-0.1,0.6,0,0.6,0.2c-0.4,1.3-0.6,2-0.9,2.8c-0.2,0.7-0.4,1.5-0.6,2.3c-0.1,0.2-0.5,0.1-0.6-0.1l0-0.4
				c0.1-0.8-0.1-0.9-1.7-1.4L92.8,64.6z"/>
		</g>
		<g>
			<path class="st0" d="M95.3,55.4c0,0.4,0,0.5,0.3,0.5c2,0,3.7-1.3,3.7-3.4c0-0.9-0.3-1.7-1.1-2.2c-0.1-0.2,0.2-0.5,0.4-0.5
				c1.8,0.8,2.5,2.5,2.4,3.9c0,2.6-2,4.3-4.6,4.3c-2.6,0-5-1.8-4.9-4.9c0-1.7,1.2-3.4,3.1-3.3c0.2,0,0.3,0,0.5,0.1
				c0.2,0.1,0.3,0.7,0.3,1.6L95.3,55.4z M94.4,53.3c0-0.7,0-1-0.1-1.1c-0.1-0.1-0.3-0.2-0.5-0.2c-0.8,0-1.5,0.5-1.5,1.5
				c0,1.5,1.4,2.3,1.9,2.3c0.1,0,0.2,0,0.2-0.3L94.4,53.3z"/>
		</g>
		<path class="st0" d="M56.2,42.5c-0.1,0.4-0.1,0.8-0.2,1.2c0,0.2,0,0.4,0.2,0.4c0.2,0,0.4,0,0.6,0c0.1,0,0.2-0.1,0.2-0.2
			c0.1-0.3,0.2-0.6,0.2-0.9c0-0.4,0-0.4,0.5-0.4c0.4,0,0.9,0,1.3,0c0.4,0,0.9,0,1.3,0.2c0.2,0,0.4,0.1,0.6,0.1
			c0.2,0,0.4,0.2,0.4,0.4c0,0.3,0,0.6,0,0.8c0,0.2,0,0.3,0,0.5c0,0.4,0,0.9-0.1,1.3c-0.1,0.3-0.1,0.7-0.1,1c0,0.4-0.1,0.9-0.1,1.3
			c0,0.4-0.1,0.8-0.1,1.2c0,0.6,0,1.2,0.1,1.7c0.1,0.6,0.1,1.2,0.2,1.8c0,0.4,0.1,0.7,0.2,1c0.1,0.4,0.1,0.7,0.2,1.1
			c0,0.1,0,0.2-0.1,0.4c-0.1,0.3-0.2,0.6-0.3,1c-0.1,0.3-0.2,0.6-0.3,0.8c-0.3,0.7-0.6,1.4-1,2.2c0,0.1-0.1,0.2-0.1,0.2
			c-0.2,0.3-0.3,0.7-0.3,1c0,0.1,0.1,0.4,0.3,0.4c0,0,0.1,0,0.1,0c0.2-0.3,0.4-0.5,0.6-0.9c0.2-0.6,0.4-1.1,0.7-1.6
			c0.3-0.7,0.6-1.3,1-1.9c0.1-0.2,0.2-0.4,0.4-0.6c0.2-0.4,0.4-0.8,0.6-1.2c0,0,0,0,0,0c0.2-0.4,0.3-0.8,0.5-1.3
			c0.2-0.4,0.3-0.9,0.5-1.3c0.2-0.5,0.4-1,0.5-1.5c0.1-0.4,0.2-0.8,0.2-1.3c0-0.4,0-0.8,0-1.3c0.1-0.6,0.1-1.2,0.4-1.8
			c0-0.1,0.1-0.2,0.1-0.3c0.1-0.4,0.2-0.7,0.4-1.1c0.1-0.2,0.2-0.4,0.3-0.6c0.2-0.4,0.5-0.8,0.9-1.1c0.3-0.2,0.6-0.5,1-0.6
			c0.2-0.1,0.4-0.1,0.6-0.1c0.2,0,0.3,0.1,0.3,0.2c0.1,0.2,0.1,0.4,0.1,0.6c0,0.7,0.1,1.5,0.1,2.2c0,0.4,0,0.8,0,1.3
			c0,0.6-0.1,1.2-0.1,1.7c0,0.4-0.1,0.8-0.1,1.2c0,0.3-0.1,0.7-0.1,1.1c0,0.2-0.1,0.5-0.1,0.7c-0.1,0.5-0.2,1-0.3,1.5
			c-0.1,0.7-0.2,1.4-0.3,2.1c-0.1,0.4-0.2,0.8-0.2,1.2c0,0.2-0.1,0.4-0.1,0.5c-0.1,0.7-0.2,1.4-0.3,2.1c-0.1,0.8-0.2,1.6-0.3,2.4
			c0,0.3-0.1,0.6-0.1,0.9c-0.1,0.5-0.1,1-0.1,1.4c0,0.4-0.1,0.7-0.2,1.1c-0.1,0.5-0.2,1.1-0.4,1.6c-0.1,0.2-0.1,0.4-0.2,0.6
			c0,0.1-0.1,0.3-0.3,0.4c-0.2,0.1-0.3,0.3-0.4,0.4c-0.2,0.3-0.4,0.5-0.6,0.8c-0.6,0.8-1.2,1.4-2.1,1.9c-0.4,0.3-0.9,0.5-1.4,0.8
			c-0.5,0.3-1.1,0.5-1.7,0.6c-0.7,0.1-1.4,0.2-2.2,0.2c-0.7,0-1.5,0-2.2,0c-0.7,0-1.3,0-2,0c-0.3,0-0.6-0.1-0.8-0.1
			c-0.5-0.1-1-0.2-1.4-0.3c-0.5-0.1-0.9-0.2-1.4-0.4c-0.4-0.1-0.8-0.3-1.2-0.5c-0.3-0.1-0.6-0.4-0.9-0.6c-0.3-0.2-0.5-0.5-0.8-0.7
			c-0.5-0.4-0.9-0.9-1.3-1.4c-0.2-0.2-0.3-0.4-0.5-0.6c-0.6-0.7-1-1.4-1.5-2.2c-0.3-0.5-0.6-0.9-0.9-1.4c-0.5-0.8-0.9-1.6-1.2-2.4
			c-0.1-0.2-0.2-0.4-0.3-0.6c-0.2-0.3-0.2-0.7-0.3-1c-0.1-0.9-0.2-1.7-0.3-2.6c-0.1-1.1-0.3-2.2-0.4-3.4c0-0.6-0.1-1.2-0.2-1.8
			c0-0.1,0-0.2,0-0.2c0-1.2,0-2.3,0-3.5c0-0.8,0-1.6,0.1-2.3c0-0.8,0.1-1.6,0.2-2.4c0-0.3,0.1-0.6,0.2-0.9c0.2-0.6,0.4-1.3,0.6-1.9
			c0-0.1,0.1-0.2,0.1-0.3c0.3-0.5,0.5-1.1,0.6-1.7c0.2-0.8,0.5-1.6,0.8-2.5c0.3-0.9,0.7-1.7,1.1-2.6c0.1-0.2,0.2-0.4,0.3-0.7
			c0,0,0,0,0,0c0.3-0.4,0.5-0.9,0.8-1.3c0.6-0.7,1.4-1.3,2.1-1.9c0.2-0.1,0.4-0.2,0.6-0.3c0.1,0,0.2,0,0.3-0.1
			c0.4-0.1,0.7,0.1,0.7,0.5c0.2,0.9,0.3,1.7-0.1,2.6c-0.3,0.6-0.5,1.2-0.9,1.7c-0.4,0.5-0.7,1.1-0.8,1.7c-0.1,0.4-0.3,0.8-0.4,1.2
			c-0.3,0.8-0.5,1.5-0.6,2.3c-0.1,0.4-0.3,0.9-0.4,1.3c-0.1,0.4-0.2,0.7-0.3,1.1c0,0.1,0,0.2-0.1,0.2c-0.2,0.3-0.2,0.6-0.2,0.9
			c0,0.2,0,0.5-0.1,0.7c-0.1,0.2-0.1,0.5-0.1,0.7c0,0.3,0.2,0.4,0.4,0.5c0.1,0,0.2,0,0.3,0c0.2-0.1,0.3-0.3,0.4-0.5
			c0-0.6,0.2-1.2,0.4-1.8c0.2-0.8,0.5-1.6,0.7-2.4c0.1-0.4,0.4-0.8,0.6-1.2c0,0,0.1-0.1,0.1-0.1c0.5-0.3,1-0.6,1.5-0.8
			c0.2-0.1,0.4-0.1,0.6-0.2c0.2-0.1,0.4-0.1,0.5-0.2c0.5-0.3,1.1-0.4,1.6-0.6c0.1,0,0.3,0,0.5,0c0.4,0,0.8,0,1.2,0
			c0.2,0,0.5,0,0.7,0c0.9,0,1.8,0,2.6,0c0.5,0,1,0,1.5,0c0.2,0,0.5,0.1,0.7,0.1c0.4,0.1,0.7,0.1,1.1,0.1c0.4,0,0.9,0.1,1.3,0.2
			c0.5,0.1,1,0.2,1.5,0.3c0.1,0,0.3,0,0.5,0.1c0.1,0,0.1,0,0.2,0c0.3,0.1,0.7,0.2,1,0.3c0.3,0.1,0.5,0.1,0.8,0.2c0,0,0,0,0.1,0
			c0.4,0.1,0.6,0.4,0.5,0.8c0,0.1-0.1,0.3-0.2,0.4c-0.2,0.3-0.3,0.5-0.5,0.7c-0.1,0.2-0.2,0.3-0.4,0.3c-0.6,0.1-1.1,0.3-1.7,0.4
			c-0.1,0-0.3,0-0.4,0c-0.4,0-0.7,0-1.1,0c-0.2,0-0.3-0.1-0.5-0.1c-0.6,0-1.1-0.2-1.6-0.4c-0.2,0-0.3,0-0.4,0
			c-0.4,0.1-0.8,0.2-1.1,0.2c-0.1,0-0.2,0-0.2,0c-0.7,0-1.4,0-2.2,0.1c-0.4,0-0.8,0.1-1.2,0.1c-0.2,0-0.3,0-0.5,0
			c-0.5,0-1,0.1-1.5,0.2c-0.2,0-0.4,0.2-0.5,0.4c0,0,0,0.1-0.1,0.1c-0.2,0.2-0.3,0.5-0.4,0.8c-0.2,0.6-0.4,1.2-0.6,1.8
			c-0.1,0.3,0,0.4,0.3,0.4c0.1,0,0.2,0,0.3,0c0.2,0,0.4-0.2,0.5-0.4c0.1-0.3,0.2-0.6,0.3-0.9c0.1-0.3,0.2-0.5,0.3-0.8
			c0-0.1,0.1-0.2,0.1-0.3c0-0.2,0.2-0.2,0.3-0.2c0.6,0,1.3-0.1,1.9-0.1c0.3,0,0.5,0,0.8-0.1c0.4,0,0.8-0.1,1.1-0.1
			C56.1,42.5,56.1,42.5,56.2,42.5"/>
		<path class="st0" d="M69.8,34c0.3-0.2,0.5-0.5,0.7-0.8c0.2-0.3,0.4-0.6,0.6-0.9c0.3-0.4,0.5-0.4,0.9-0.2c0.2-0.1,0.3-0.3,0.5-0.4
			c0.3-0.2,0.6-0.5,0.8-0.9c0-0.1,0.1-0.1,0.1-0.2c0.1-0.2,0.3-0.2,0.5-0.2c0.1,0,0.2,0,0.3-0.1c0.2-0.2,0.5-0.5,0.7-0.7
			c0.2-0.2,0.4-0.4,0.6-0.5c0.1-0.1,0.2-0.2,0.3-0.4c0.1-0.2,0.2-0.4,0.4-0.6c0.2-0.3,0.4-0.4,0.7-0.5c0.1,0,0.2,0,0.4,0
			c0-0.1,0.1-0.2,0.1-0.3c0-0.1,0.1-0.2,0.1-0.3c0.3-0.5,0.5-1.1,0.6-1.7c0-0.2,0.1-0.4,0.2-0.6c0.1-0.1,0.1-0.2,0.1-0.3
			c0-0.5,0-1.1-0.1-1.6c-0.2-1-0.5-2-0.8-3c-0.4-1.3-0.9-2.5-1.6-3.6c-0.2-0.3-0.4-0.7-0.6-1.1c0-0.1-0.1-0.2-0.1-0.3
			c0.3-0.1,0.6,0,0.7,0.2c0.1,0.1,0.2,0.3,0.3,0.3c0,0,0,0,0.1,0.1c0.3,0.4,0.7,0.6,1.1,0.8c0.2,0.1,0.4,0.3,0.5,0.5
			c0.1,0.3,0.3,0.5,0.6,0.7c0.2,0.1,0.4,0.3,0.5,0.6c0,0.1,0.1,0.2,0.2,0.3c0.2,0.2,0.3,0.5,0.4,0.8c0.2,0.6,0.4,1.2,0.5,1.8
			c0.2,0.8,0.2,1.6,0,2.4c-0.1,0.6-0.3,1.1-0.5,1.7c-0.1,0.2-0.1,0.4-0.1,0.6c0,0.2-0.1,0.5-0.2,0.7c-0.2,0.7-0.5,1.5-0.6,2.2
			c0,0.1-0.1,0.3-0.1,0.4c-0.3,0.8-0.7,1.5-1,2.3c-0.2,0.4-0.3,0.8-0.4,1.2c-0.3,0.8-0.7,1.6-1.1,2.4c-0.4,0.7-0.9,1.2-1.4,1.7
			c-0.4,0.3-0.7,0.6-1.1,0.9c-0.2,0.2-0.5,0.3-0.8,0.5c-0.8,0.5-1.6,1-2.4,1.6c-0.2,0.1-0.4,0.2-0.6,0.3c-0.2,0.1-0.3,0.1-0.5,0.2
			c-0.1,0-0.1,0.1-0.2,0.1c-0.2,0.3-0.4,0.4-0.7,0.6c-0.3,0.2-0.5,0.4-0.8,0.5c-0.5,0.3-0.8,0.7-1.2,1.1c-0.1,0.2-0.3,0.3-0.5,0.3
			c-0.2,0-0.4-0.1-0.4-0.3c0-0.2,0.1-0.3,0.1-0.5c0-0.1,0-0.2,0-0.2c0-0.7,0.2-1.3,0.5-1.9c0.1-0.3,0.2-0.6,0.4-0.9
			c0.2-0.4,0.4-0.7,0.7-1c0.1-0.1,0.2-0.3,0.3-0.4c0.1-0.1,0.1-0.3,0.2-0.4c0.3-0.4,0.6-0.9,0.8-1.3c0.1-0.3,0.2-0.6,0.3-0.8
			c0.1-0.1,0.1-0.3,0.2-0.5C69,33.9,69.3,33.8,69.8,34C69.7,34,69.7,34,69.8,34"/>
		<path class="st0" d="M55,36.6c-0.4,0-0.9,0-1.3,0c-0.3,0-0.7,0-1.1,0c-0.1,0-0.2,0-0.1-0.2c0-0.2,0.1-0.4,0.1-0.6
			c0.1-0.3,0.1-0.7,0.2-1c0.1-0.5,0.2-1,0.4-1.4c0.1-0.1,0.1-0.3,0.1-0.4c0.1-0.2,0.2-0.4,0.2-0.7c0.2-0.5,0.3-0.9,0.5-1.4
			c0.1-0.4,0.3-0.7,0.5-1c0.4-0.7,0.8-1.3,1.3-1.9c0.3-0.4,0.5-0.7,0.8-1.1c0.6-0.8,1.3-1.5,2.1-2.2c0.2-0.2,0.4-0.4,0.6-0.6
			c0.3-0.2,0.6-0.2,0.9-0.1c0.2,0,0.3,0.2,0.3,0.4c0.1,0.3,0.1,0.6,0.2,0.9c0,0.2,0,0.3,0,0.5c-0.1,0.4-0.3,0.8-0.4,1.3
			c0,0.1-0.1,0.2-0.2,0.3c-0.5,0.6-0.8,1.2-1.2,1.9c-0.1,0.2-0.2,0.4-0.3,0.6c-0.3,0.6-0.5,1.2-0.7,1.9c-0.1,0.2-0.1,0.4-0.2,0.6
			c-0.2,0.5-0.2,0.9-0.3,1.4c-0.1,0.7-0.1,1.4-0.2,2.1c0,0.3-0.1,0.6-0.2,1c0,0.2-0.1,0.2-0.3,0.2C56.2,36.6,55.6,36.6,55,36.6z"/>
		<path class="st0" d="M64.9,27.4c0,0.8-0.2,1.6-0.7,2.3c-0.4,0.6-0.8,1.1-1.4,1.6c-0.2,0.2-0.3,0.4-0.4,0.7
			c-0.1,0.4-0.2,0.8-0.3,1.2c0,0.2-0.1,0.4-0.1,0.6c0,0.9-0.1,1.8-0.4,2.7c0,0.1,0,0.3-0.1,0.4c0,0.2-0.1,0.2-0.3,0.2
			c-0.4,0-0.8-0.1-1.2-0.1c-0.6-0.1-1.2-0.2-1.8-0.3c0,0-0.1,0-0.1,0c-0.1,0-0.2-0.1-0.2-0.2c0-0.2,0-0.4,0.1-0.6c0-0.1,0-0.2,0-0.3
			c0,0,0-0.1,0-0.1c0.1-0.4,0.1-0.8,0.2-1.2c0.2-0.7,0.3-1.5,0.5-2.3c0.1-0.7,0.4-1.3,0.7-1.9c0.1-0.2,0.3-0.4,0.5-0.6
			c0.5-0.4,1.1-0.8,1.6-1.3c0.2-0.1,0.4-0.2,0.6-0.4c0.3-0.2,0.6-0.5,0.9-0.7c0.3-0.2,0.7-0.4,1-0.7c0.3-0.2,1,0,1,0.5
			C64.9,27.1,64.9,27.2,64.9,27.4"/>
	</g>
	<path class="st0" d="M57.8,0.5c0.4,0,0.9,0,1.3,0l0.1,0l0.8,0l0.2,0L63,0.7c1.7,0.1,3.4,0.4,5.1,0.8l1.1,0.2
		C74.8,2.8,79.8,5.1,84,7.2c0.9,0.4,1.7,1,2.5,1.5c0.4,0.2,0.8,0.5,1.1,0.7c2.1,1.3,4.8,3.1,7.1,5.4l1.1,1.1c2,1.9,4.1,3.9,5.7,6.2
		c0.3,0.4,0.6,0.9,1,1.3c1,1.4,2.1,2.8,2.8,4.3l0.4,0.7c2,3.8,4,7.7,5.3,11.8c0.1,0.3,0.2,0.6,0.3,0.9l0.1,0.2
		c0.2,0.8,0.5,1.5,0.7,2.3c0.2,1.2,0.4,2.4,0.5,3.7l0.1,0.7c0.1,0.5,0.1,0.9,0.1,1.4l0,0.1c0.1,0.7,0.1,1.5,0.2,2.2
		c0.5,2.7,0.6,5.4,0.5,8c-0.1,1.5-0.3,3.1-0.6,4.6c-0.1,0.7-0.2,1.4-0.3,2.2c0,0.3-0.1,0.7-0.1,1l0,0.1c-0.1,0.5-0.1,1-0.2,1.5
		c-0.5,3-1.9,5.7-3.2,8.4l-0.4,0.8l-0.4,0.8c-0.6,1.2-1.2,2.5-1.9,3.7c-0.4,0.6-0.7,1.3-1,1.9c-0.3,0.6-0.6,1.2-0.9,1.8
		c-0.5,0.9-1.1,1.7-1.7,2.5l0,0.1c-0.3,0.3-0.5,0.7-0.8,1l-0.2,0.2c-0.1,0.1-0.2,0.3-0.4,0.5c-0.8,1.4-1.9,2.4-3.1,3.6l-0.8,0.8
		c-2.2,2.2-4.8,4.2-7.3,6.1l-0.6,0.4c-0.9,0.7-2,1.3-3,1.8c-0.5,0.3-1,0.5-1.4,0.8c-0.1,0.1-0.2,0.1-0.3,0.1l-0.1,0
		c-0.2,0.1-0.4,0.2-0.5,0.3c-2.5,1.6-5.3,2.8-8.6,3.6c-0.5,0.1-1,0.3-1.6,0.5c-0.7,0.2-1.3,0.5-2,0.6c-2,0.4-4,0.7-6.4,1l-2.1,0.3
		c-2.9,0.4-5.3,0.5-7,0.5c-0.3,0-0.6,0-0.9,0l-0.1,0c-0.3,0-0.6,0-0.9,0c-0.4,0-0.7,0-1.1,0c-0.1,0-0.2,0-0.3,0
		c-1.7,0-3.5-0.1-5.2-0.3c-3.5-0.4-7.3-1-10.8-2.7c-0.7-0.3-1.5-0.6-2.2-0.9l-0.1,0c-0.8-0.3-1.6-0.6-2.4-1c-4-2-7.8-4.4-11.4-7.2
		c-0.6-0.4-1.1-0.8-1.7-1.2c-0.3-0.2-0.6-0.4-0.9-0.6c-1.6-1.1-2.9-2.5-4.4-4.3c-2.4-2.8-4.4-6.1-6.3-9.2L7,82.6
		c-2.5-4.2-4.3-8.8-5.2-13.7c-0.3-1.8-0.5-3.6-0.7-5.5c-0.1-1.2-0.2-2.4-0.3-3.7l-0.1-1.1l-0.1-0.7l0-0.1c-0.1-0.7-0.1-1.3-0.1-2
		c0-1.4,0.1-2.8,0.2-4.2L0.8,51c0.1-1.3,0.2-2.7,0.3-4c0.2-2.1,0.7-4.3,1.4-6.5c0.2-0.6,0.3-1.2,0.5-1.8l0-0.1
		c0.2-0.7,0.3-1.3,0.5-1.9c1.1-3.3,2.6-6.4,4.5-9.1c0.7-1,1.3-1.9,2-3c0.7-1,1.4-2.1,2.1-3.2c0.5-0.7,1.1-1.3,1.7-2l0.2-0.2
		c2.3-2.5,4.5-4.7,7-6.6c3-2.3,6.3-4,9.7-5.8c3.6-1.8,7-3.1,10.4-3.9c0.8-0.2,1.6-0.4,2.4-0.6l0.2-0.1c1.2-0.3,2.6-0.7,3.9-0.9
		C49.5,1.2,51.3,1,53,0.8l1.2-0.1c1-0.1,2-0.2,3.3-0.2C57.6,0.5,57.7,0.5,57.8,0.5 M57.8,0c-0.1,0-0.2,0-0.3,0
		c-1.3,0-2.4,0.1-3.4,0.2L53,0.3c-1.7,0.2-3.6,0.4-5.3,0.7c-1.3,0.2-2.7,0.6-4,0.9c-0.9,0.2-1.7,0.4-2.6,0.6
		c-3.5,0.8-6.9,2.1-10.6,3.9c-3.4,1.8-6.7,3.5-9.8,5.8c-2.5,1.9-4.7,4.2-7.1,6.6l-0.2,0.2c-0.6,0.6-1.3,1.3-1.8,2
		c-0.7,1-1.4,2.1-2.1,3.2c-0.7,1-1.3,2-2,3c-1.9,2.7-3.4,5.8-4.5,9.2c-0.2,0.6-0.4,1.3-0.5,1.9c-0.2,0.6-0.3,1.2-0.5,1.8
		c-0.7,2.2-1.2,4.4-1.4,6.6c-0.1,1.3-0.3,2.7-0.3,4l-0.1,0.7C0.1,53,0,54.4,0,55.9c0,0.7,0,1.4,0.1,2.1l0.1,0.7l0.1,1.1
		c0.1,1.2,0.2,2.5,0.3,3.7C0.8,65.3,1,67.2,1.3,69c0.9,5,2.6,9.6,5.2,13.9l0.8,1.4c1.9,3.2,3.9,6.4,6.4,9.3c1.5,1.8,2.9,3.2,4.5,4.4
		c0.3,0.2,0.6,0.4,0.9,0.6c0.6,0.4,1.1,0.8,1.7,1.2c3.6,2.8,7.5,5.2,11.5,7.2c0.8,0.4,1.6,0.7,2.5,1c0.8,0.3,1.5,0.6,2.3,0.9
		c3.5,1.7,7.3,2.3,10.9,2.7c1.7,0.2,3.5,0.3,5.3,0.3c0.1,0,0.2,0,0.3,0c0.6,0,1.5,0,2,0c0,0,0.1,0,0.1,0c0.3,0,0.6,0,0.9,0
		c2.1,0,4.4-0.1,7.1-0.5l2.1-0.3c2.1-0.3,4.3-0.6,6.4-1c0.7-0.1,1.4-0.4,2.1-0.6c0.5-0.2,1-0.3,1.5-0.5c3.3-0.9,6.2-2.1,8.8-3.7
		c0.2-0.1,0.3-0.2,0.5-0.3c0.1-0.1,0.2-0.1,0.4-0.2c0.5-0.3,0.9-0.5,1.4-0.8c1.1-0.6,2.1-1.2,3.1-1.9l0.6-0.4
		c2.5-1.9,5.1-3.9,7.3-6.1l0.8-0.8c1.2-1.2,2.3-2.3,3.2-3.7c0.1-0.1,0.2-0.3,0.3-0.4l0.2-0.2c0.3-0.4,0.5-0.7,0.8-1.1
		c0.6-0.8,1.3-1.7,1.8-2.5c0.3-0.6,0.7-1.2,1-1.8c0.3-0.6,0.7-1.3,1-1.9c0.7-1.2,1.4-2.5,2-3.8l0.4-0.8l0.4-0.8
		c1.3-2.7,2.7-5.5,3.2-8.5c0.1-0.5,0.1-1.1,0.2-1.6c0-0.3,0.1-0.7,0.1-1c0.1-0.7,0.2-1.4,0.3-2.2c0.2-1.5,0.5-3.1,0.6-4.7
		c0.1-2.7,0-5.5-0.5-8.2c-0.1-0.7-0.2-1.5-0.2-2.2c0-0.5-0.1-1-0.1-1.4l-0.1-0.7c-0.1-1.2-0.3-2.5-0.5-3.7c-0.2-0.8-0.4-1.6-0.7-2.4
		c-0.1-0.4-0.2-0.7-0.3-1.1c-1.3-4.2-3.3-8.1-5.3-11.9l-0.4-0.7c-0.8-1.5-1.9-3-2.9-4.4c-0.3-0.4-0.6-0.8-0.9-1.3
		c-1.7-2.3-3.7-4.3-5.8-6.3l-1.1-1.1c-2.4-2.3-5.1-4.1-7.2-5.5c-0.4-0.2-0.7-0.5-1.1-0.7c-0.8-0.6-1.7-1.1-2.6-1.6
		C80,4.7,74.9,2.4,69.3,1.2L68.2,1c-1.7-0.4-3.4-0.7-5.2-0.8l-2.7-0.1l-0.2,0l-0.8,0C58.8,0,58.3,0,57.8,0L57.8,0z"/>
</g>
</svg>
