<?xml version="1.0" encoding="utf-8"?>
<!-- Generator: Adobe Illustrator 21.0.0, SVG Export Plug-In . SVG Version: 6.00 Build 0)  -->
<svg version="1.1" id="Layer_1" xmlns="http://www.w3.org/2000/svg" xmlns:xlink="http://www.w3.org/1999/xlink" x="0px" y="0px"
	 viewBox="0 0 114 107.2" style="enable-background:new 0 0 114 107.2;" xml:space="preserve">
<style type="text/css">
	.st0{fill:#2A4336;}
</style>
<g>
	<g>
		<path class="st0" d="M23.4,33.2c-0.9,1.6-1.7,3.1-2,3.6c-0.6-0.3-2.5-1.4-3.7-2c-0.1-0.2,0.1-0.7,0.4-0.9c1.6,0.6,2.6,0.6,3.4-0.2
			c0.6-0.6,1-1.2,1.4-2l0.7-1.3c0.6-1.1,0.6-1.1-0.9-1.9l-4.6-2.6c-0.6-0.4-0.7-0.4-1,0.2l-0.9,1.5c-1.3,2.2-1.4,2.6-0.5,3.5
			l0.8,0.7c0.1,0.3-0.2,0.7-0.5,0.8c-0.6-0.4-1.6-1-2.5-1.5c-1-0.5-1.9-1-2.7-1.4c-0.1-0.2,0.1-0.7,0.4-0.8l1.1,0.4
			c1.2,0.4,1.5,0,2.8-2.2l0.9-1.5c0.3-0.6,0.3-0.6-0.3-1l-3.6-2c-2.7-1.5-2.9-1.3-3.7-0.2l-0.7,1C7.4,23.2,7,22.9,7,22.6
			c1-1.6,1.7-2.7,2.3-3.9c0.6-1.1,1.3-2.3,1.9-3.5c0.2-0.1,0.7,0.1,0.8,0.4l-0.2,0.6c-0.5,1.3-0.6,1.6,2.1,3.1l9.5,5.4
			c2.7,1.5,2.9,1.4,3.8,0.3l0.2-0.3c0.3-0.1,0.7,0.2,0.7,0.5c-0.6,0.9-1.2,2-1.9,3.1L23.4,33.2z"/>
	</g>
	<g>
		<path class="st0" d="M9.3,35.4c0.1-0.5,0.1-0.6-0.2-0.7c-2.6-0.6-5,0.7-5.6,3.3c-0.3,1.1-0.1,2.2,0.8,3.1c0,0.3-0.3,0.6-0.6,0.5
			c-2.1-1.5-2.5-3.8-2.1-5.6c0.7-3.3,3.7-5,7-4.3c3.2,0.7,5.9,3.6,5,7.5c-0.5,2.1-2.3,4-4.8,3.4c-0.3-0.1-0.4-0.1-0.6-0.3
			c-0.2-0.2-0.2-0.9,0.1-2.1L9.3,35.4z M9.8,38.3c-0.2,0.8-0.2,1.2-0.1,1.5c0.1,0.2,0.3,0.4,0.5,0.4c1,0.2,2-0.2,2.3-1.5
			c0.4-1.9-1.2-3.2-1.8-3.4c-0.1,0-0.2,0-0.3,0.3L9.8,38.3z"/>
	</g>
	<g>
		<path class="st0" d="M7.3,48.4c0-0.6-0.1-0.6-0.4-0.6c-2.6,0.1-4.7,2-4.6,4.6c0,1.2,0.5,2.1,1.6,2.8c0.1,0.3-0.2,0.6-0.4,0.7
			C1,54.9,0.1,52.7,0,50.9c-0.1-3.4,2.3-5.7,5.7-5.9c3.3-0.1,6.6,2.1,6.7,6c0.1,2.2-1.3,4.5-3.8,4.5c-0.3,0-0.4,0-0.7-0.1
			c-0.3-0.2-0.4-0.8-0.4-2L7.3,48.4z M8.6,51.1c0,0.9,0.1,1.2,0.3,1.4c0.1,0.2,0.4,0.3,0.6,0.3c1.1,0,1.9-0.7,1.8-2
			c-0.1-2-2-2.8-2.6-2.8c-0.1,0-0.2,0.1-0.2,0.4L8.6,51.1z"/>
	</g>
	<g>
		<path class="st0" d="M17,57c1.9-0.5,2-0.6,2.3-1.5l0.1-0.4c0.1-0.2,0.5-0.4,0.7-0.2c0.6,1,1.7,2.3,2.4,3.3c0.1,0.2,0,0.4-0.1,0.5
			c-1.1,0.3-2.9,0.8-4.1,1.1L5.8,63.5c-2.1,0.6-2.4,0.8-2.2,1.8L3.7,66c-0.1,0.3-0.7,0.4-0.8,0.2C2.5,65,2.3,64,2,63
			c-0.3-0.9-0.6-1.9-1-3c0-0.3,0.5-0.4,0.8-0.3l0.3,0.6c0.4,0.9,0.8,0.9,2.9,0.3L17,57z"/>
	</g>
	<g>
		<path class="st0" d="M9.4,73c-1.9,1-2.1,1.2-1.8,2.2l0.2,0.5C7.6,76,7.2,76.2,7,76c-0.4-1-0.9-1.9-1.4-2.9
			c-0.4-0.9-0.9-1.7-1.5-2.7c0-0.3,0.5-0.5,0.7-0.4l0.3,0.4c0.6,0.8,0.9,0.8,2.9-0.2l3.8-2c1.2-0.6,1.5-0.8,1.5-1.6l0-0.4
			c0.1-0.1,0.4-0.3,0.6-0.3c1.1,1.2,2.3,2.2,3.2,2.7c0.1,0.2,0.1,0.3,0,0.5c-0.9,0.4-2.2,1-3.2,1.6L9.4,73z M19.4,64
			c0.9-0.5,1.9-0.2,2.4,0.8c0.5,0.9,0.1,1.9-0.7,2.4c-0.9,0.5-1.9,0.2-2.4-0.8S18.5,64.5,19.4,64z"/>
	</g>
	<g>
		<path class="st0" d="M14.6,81.5c-1.6,1.4-1.8,1.7-1.3,2.6l0.2,0.4c0,0.3-0.4,0.6-0.7,0.5c-0.6-0.8-1.3-1.6-2-2.4
			c-0.6-0.7-1.3-1.4-2.2-2.3C8.6,80,9,79.6,9.3,79.7l0.5,0.4c0.8,0.7,1.1,0.5,2.7-0.9l3.3-2.8c1-0.9,1.3-1.1,1.1-1.9L16.8,74
			c0-0.1,0.3-0.4,0.5-0.4c1.1,0.7,2.7,1.5,3.7,1.8c0.1,0.2,0.1,0.3,0.1,0.4c-0.5,0.3-0.9,0.7-1.1,0.8c-0.2,0.1-0.1,0.2,0,0.4
			c1.5,0.5,2.6,0.7,3.8,2.1c1.6,1.8,1.1,3.7-0.7,5.2l-3.4,3c-1.6,1.4-1.8,1.8-1.3,2.6l0.4,0.6c0,0.3-0.4,0.6-0.7,0.5
			c-0.8-1-1.4-1.7-2.1-2.6c-0.6-0.7-1.3-1.5-2-2.2c-0.1-0.3,0.3-0.6,0.6-0.6l0.3,0.3c0.8,0.7,1.1,0.5,2.7-0.9l3.1-2.7
			c1.1-1,1.6-2.2,0.5-3.5c-0.6-0.7-1.4-0.9-2-0.9c-0.7,0.1-0.9,0.2-1.7,0.9L14.6,81.5z"/>
	</g>
	<g>
		<path class="st0" d="M35.4,91.6c-0.1,0.3-0.2,0.6-0.6,1.1c-1.3,2.1-4,3.2-7.1,1.2c-0.3-0.2-0.6-0.4-0.9-0.7
			c-0.5-0.1-1.1,0-1.4,0.5c-0.3,0.5-0.3,1.2,0.8,1.8c0.7,0.5,1.7,1,2.8,1.7c1.8,1.1,3.9,2.9,2.1,5.6c-0.8,1.3-2.5,1.9-3.5,2
			c-1.7,0.2-3.7-0.1-5.9-1.4c-3.5-2.2-3.6-4.6-2.8-5.9c0.2-0.4,0.5-0.7,1-0.8c0.4-0.1,1.7-0.1,2.2-0.1c0.3,0,0.7-0.2,0.5-0.4
			C22,95.2,21.8,94,22.4,93c0.2-0.2,0.4-0.4,0.8-0.4c0.5,0,2.2,0,2.4-0.3c0-0.1,0.1-0.2,0.1-0.3c-0.6-0.9-1-2.5,0-4.1
			c1.4-2.2,4.4-2.7,7-1c1,0.6,1.7,1.4,2.2,2.1c0.4,0.6,0.6,0.9,0.9,1.1l2.4,1.5c0,0.1,0,0.4-0.1,0.6c-0.3,0.5-0.7,0.7-0.9,0.6
			L35.4,91.6z M25.4,98.1c-0.9-0.6-1.4-0.8-1.9-0.8c-0.6,0.1-1.2,0.3-1.6,0.9c-1,1.5-0.3,3.4,1.7,4.6c2.1,1.3,3.9,1.2,4.8-0.2
			c0.8-1.3,0-2.6-1.5-3.6L25.4,98.1z M28.7,93.3c0.9,0.6,2.2,0.2,3.3-1.5c1.1-1.7,1.1-3.4,0-4.1c-0.9-0.6-2.2-0.2-3.2,1.5
			C27.5,91.1,27.8,92.6,28.7,93.3z"/>
	</g>
	<g>
		<path class="st0" d="M73.3,98.9c0.2,0.9,0.8,4.4,1,5.1c-0.2,0.4-0.6,0.6-0.9,0.6c-0.6-0.5-1.6-1.3-4.1-3.3l-8.2-6.5
			c-2.2-1.8-3.4-2.7-4-3c-0.1,0,0,0.3,0.3,1.9l1,5.6c0.4,2.2,0.9,4.8,1.6,5.6c0.3,0.4,0.9,0.5,1.6,0.4l0.7,0
			c0.3,0.2,0.4,0.7,0.1,0.8c-1.1,0.1-2.2,0.3-3.3,0.5c-1.2,0.2-2,0.4-3,0.6c-0.3-0.1-0.4-0.6-0.2-0.8l0.6-0.3c0.5-0.2,1-0.4,1.1-0.9
			c0.2-1-0.3-3.5-0.7-5.8l-1.3-6.9c-0.4-2.3-0.5-2.7-1.6-3.4c-0.4-0.2-1.2-0.3-1.6-0.3l-0.4,0c-0.2-0.1-0.3-0.7,0-0.9
			c1.1-0.1,2.7-0.4,3.4-0.6c0.6-0.1,1.3-0.3,2-0.5c0.7,1.2,4.5,4.2,5.8,5.1l3.5,2.6c1.5,1.1,4.7,3.7,5,3.8c0.1-0.1,0-0.2,0-0.7
			l-1-5.6c-0.4-2.2-0.9-4.8-1.6-5.6c-0.3-0.4-0.8-0.5-1.6-0.5l-0.7,0c-0.3-0.1-0.4-0.7-0.1-0.8c1.1-0.1,2.2-0.3,3.3-0.5
			c1.2-0.2,2-0.4,3-0.6c0.3,0.1,0.4,0.6,0.2,0.8l-0.6,0.3c-0.5,0.2-1,0.4-1.1,0.9c-0.2,1,0.2,3.5,0.7,5.8L73.3,98.9z"/>
	</g>
	<g>
		<path class="st0" d="M86.2,93.6c0.8,1.5,1.6,2.1,2.5,1.5c0.4-0.3,0.6-0.7,0.7-0.8c0.1-0.1,0.5,0.1,0.5,0.4c-0.1,1-1.1,2.1-1.9,2.6
			c-0.6,0.4-1.5,0.6-2.2,0.4c-0.3-0.1-0.5-0.1-0.6-0.1c-0.1,0.1-0.2,0.3-0.5,0.8c-0.3,0.6-0.9,1.4-1.8,1.9c-1.7,1-3.3,0.3-4-1
			c-0.5-0.9-0.7-2,0.7-3.6c0.7-0.8,1.5-1.7,2.2-2.6c0.4-0.5,0.3-0.7,0.2-1l-0.4-0.7c-0.7-1.3-1.7-2.2-3-1.5c-0.7,0.4-1,1.1-0.7,1.9
			c0.2,0.5,0.2,0.9,0.1,1.2c-0.2,0.4-0.8,1.1-1.4,1.4c-0.3,0.2-0.6,0.1-0.7-0.1c-0.2-0.3-0.3-0.9,0-2.2c0.4-1.2,1.7-3.1,3-3.9
			c2-1.2,3.8-0.9,5,1.3L86.2,93.6z M83.2,94.2c-0.2-0.3-0.3-0.4-0.5-0.3c-0.2,0.1-0.6,0.5-0.9,1c-0.6,0.7-1,1.4-0.4,2.5
			c0.4,0.7,1.3,1.2,2.3,0.6c0.9-0.5,0.8-1.3,0.5-1.9L83.2,94.2z"/>
	</g>
	<g>
		<path class="st0" d="M89.6,82.2c-0.4,0.4-0.4,0.4,0.3,1.1l3.1,3.3c1.3,1.3,2.6,2.3,4,1c0.4-0.4,0.5-0.8,0.6-1.4
			c0.2-0.2,0.5-0.1,0.7,0.2c0.1,1-0.3,2.5-1.6,3.8c-2,1.9-3.5,1.1-4.9-0.4l-4.1-4.3c-0.7-0.7-0.8-0.7-1.1-0.4l-0.7,0.7
			c-0.3,0.1-0.7-0.2-0.6-0.5c0.5-1,0.7-1.7,0.8-2.5c0.1-0.7,0.2-1.6-0.1-2.4c0.1-0.3,0.4-0.5,0.7-0.5l1.2,1.3c0.3,0.3,0.4,0.4,0.8,0
			l2.1-2c0.2-0.1,0.4,0.1,0.6,0.3c0.2,0.3,0.3,0.5,0.3,0.8L89.6,82.2z"/>
	</g>
	<g>
		<path class="st0" d="M104.3,71.9c1.4,0.8,2.7,1.5,3.1,0.9c0.2-0.4,0.3-0.8,0.4-1.2c0.2-0.1,0.8,0.1,0.8,0.6
			c-0.5,1.2-1.3,3.4-1.4,4.7c-0.1,0.1-0.2,0.1-0.4,0.1c-0.3-0.2-0.6-0.5-0.9-0.6c-0.2-0.1-0.3-0.1-0.4,0.1c0,1.4,0,2.9-0.8,4.2
			c-1.3,2.3-3,2.3-5.1,1.1l-4-2.3c-1.8-1-2-1-2.6-0.5l-0.3,0.3c-0.2,0.1-0.7-0.2-0.6-0.4c0.8-1.5,1.4-3.1,1.6-3.8
			c0.1-0.1,0.2-0.2,0.4-0.1c0.3,0.2,0.9,0.6,2.1,1.3l3.9,2.2c1.5,0.9,3.1,1.4,4.1-0.4c0.3-0.6,0.5-1.4,0.3-2
			c-0.1-0.4-0.3-0.6-1.3-1.1l-3.9-2.2c-1.6-0.9-1.8-0.8-2.7,0L96.4,73c-0.2,0.1-0.7-0.2-0.7-0.4c1-1.7,1.8-3.6,1.8-4.3
			c0.1-0.1,0.2-0.2,0.4-0.1c0.5,0.3,1.2,0.8,2.1,1.3L104.3,71.9z"/>
	</g>
	<g>
		<path class="st0" d="M103.4,64.8c-1.3-0.3-1.6-0.4-2.2,0.1l-0.3,0.3c-0.1,0.1-0.5-0.1-0.6-0.2c-0.1-1.3-0.3-3-0.5-4
			c0-0.2,0.2-0.3,0.4-0.3c0.5,0.2,1,0.3,1.3,0.4c0.2,0.1,0.4,0,0.4-0.2c-0.4-1-1-2.2-0.7-3.2c0.3-1,1.1-1.4,1.8-1.2
			c1.1,0.3,1.4,1.3,1.2,2c-0.1,0.3-0.2,0.5-0.4,0.7c-0.7,0.6-0.9,1-0.9,1.2c-0.2,0.7,0.4,1,1.8,1.4l3.9,1.1c2.1,0.6,2.4,0.6,2.8-0.4
			l0.4-1.1c0.3-0.1,0.7,0,0.8,0.3c-0.5,1.7-0.8,2.6-1.1,3.7c-0.3,0.9-0.5,1.9-0.7,3c-0.2,0.2-0.7,0.1-0.8-0.2l0-0.5
			c0.1-1-0.1-1.2-2.2-1.8L103.4,64.8z"/>
	</g>
	<g>
		<path class="st0" d="M106.6,52.7c0,0.6,0,0.6,0.4,0.6c2.6,0,4.8-1.7,4.8-4.4c0-1.2-0.3-2.1-1.4-2.8c-0.1-0.3,0.2-0.6,0.5-0.6
			c2.3,1,3.2,3.2,3.1,5c-0.1,3.4-2.6,5.6-6,5.6c-3.3-0.1-6.5-2.4-6.4-6.3c0-2.2,1.5-4.4,4.1-4.3c0.3,0,0.4,0,0.7,0.2
			c0.3,0.2,0.4,0.9,0.3,2L106.6,52.7z M105.4,50c0-0.8-0.1-1.2-0.2-1.4c-0.1-0.2-0.3-0.3-0.6-0.3c-1.1,0-1.9,0.6-1.9,1.9
			c0,2,1.9,2.9,2.5,2.9c0.1,0,0.2-0.1,0.2-0.4L105.4,50z"/>
	</g>
	<path class="st0" d="M55.9,36.1c-0.1,0.5-0.2,1-0.3,1.5c-0.1,0.3,0,0.5,0.3,0.5c0.3,0,0.6,0,0.8,0c0.2,0,0.2-0.2,0.3-0.3
		c0.1-0.4,0.2-0.7,0.3-1.1c0.1-0.6,0.1-0.6,0.6-0.6c0.6,0,1.1-0.1,1.7,0c0.6,0,1.1,0.1,1.7,0.2c0.3,0.1,0.5,0.1,0.8,0.1
		c0.3,0,0.5,0.2,0.5,0.6c0,0.4,0,0.7,0,1.1c0,0.2,0,0.4,0,0.7c0,0.6-0.1,1.1-0.2,1.7c-0.1,0.4-0.1,0.9-0.1,1.3
		c-0.1,0.6-0.1,1.2-0.1,1.7c0,0.5-0.1,1-0.1,1.5c0,0.8,0,1.5,0.1,2.3c0.1,0.8,0.1,1.6,0.2,2.4c0,0.5,0.1,0.9,0.2,1.3
		c0.1,0.5,0.2,0.9,0.2,1.4c0,0.1,0,0.3-0.1,0.5c-0.2,0.4-0.3,0.8-0.4,1.3c-0.1,0.4-0.2,0.7-0.4,1.1c-0.4,0.9-0.8,1.9-1.3,2.8
		c0,0.1-0.1,0.2-0.2,0.3c-0.3,0.4-0.3,0.9-0.4,1.3c0,0.2,0.2,0.5,0.4,0.5c0.1,0,0.1,0,0.2-0.1c0.3-0.3,0.6-0.7,0.7-1.1
		c0.2-0.7,0.5-1.4,0.8-2.1c0.4-0.9,0.8-1.7,1.2-2.5c0.1-0.3,0.3-0.5,0.5-0.8c0.3-0.5,0.5-1.1,0.7-1.6c0,0,0,0,0,0
		c0.3-0.5,0.4-1.1,0.6-1.6c0.2-0.5,0.4-1.1,0.6-1.6c0.3-0.6,0.5-1.2,0.7-1.9c0.1-0.5,0.3-1.1,0.3-1.6c0-0.5,0-1.1,0-1.6
		c0.1-0.8,0.2-1.6,0.5-2.3c0.1-0.1,0.1-0.2,0.1-0.3c0.1-0.5,0.3-0.9,0.6-1.4c0.2-0.3,0.3-0.5,0.4-0.8c0.2-0.6,0.6-1,1.1-1.4
		c0.4-0.3,0.8-0.6,1.3-0.8c0.2-0.1,0.5-0.2,0.8-0.1c0.2,0,0.3,0.1,0.4,0.3c0.1,0.2,0.1,0.5,0.1,0.8c0,1,0.1,1.9,0.1,2.9
		c0,0.5,0,1.1-0.1,1.6c0,0.8-0.1,1.5-0.2,2.3c0,0.5-0.1,1-0.2,1.5c-0.1,0.5-0.1,0.9-0.2,1.4c0,0.3-0.1,0.6-0.2,1
		c-0.1,0.7-0.2,1.3-0.3,2c-0.1,0.9-0.2,1.9-0.4,2.8c-0.1,0.5-0.2,1.1-0.3,1.6c0,0.2-0.1,0.5-0.1,0.7c-0.1,0.9-0.3,1.8-0.4,2.7
		c-0.2,1-0.3,2.1-0.5,3.1c-0.1,0.4-0.1,0.8-0.2,1.2c-0.1,0.6-0.1,1.2-0.2,1.9c-0.1,0.5-0.1,0.9-0.2,1.4c-0.1,0.7-0.3,1.4-0.5,2.1
		c-0.1,0.3-0.2,0.6-0.2,0.8c-0.1,0.2-0.2,0.3-0.3,0.5c-0.2,0.2-0.4,0.3-0.5,0.5c-0.3,0.3-0.5,0.7-0.8,1.1c-0.7,1-1.6,1.8-2.7,2.5
		c-0.6,0.4-1.2,0.7-1.8,1c-0.7,0.4-1.4,0.6-2.1,0.7c-0.9,0.2-1.9,0.2-2.8,0.2c-0.9,0-1.9,0-2.8,0c-0.9,0-1.7,0-2.6,0
		c-0.4,0-0.7-0.1-1.1-0.1c-0.6-0.1-1.2-0.3-1.9-0.4c-0.6-0.1-1.2-0.3-1.8-0.5c-0.5-0.2-1-0.4-1.5-0.6c-0.4-0.2-0.8-0.5-1.2-0.7
		c-0.4-0.3-0.7-0.6-1.1-0.9c-0.7-0.5-1.2-1.2-1.7-1.8c-0.2-0.3-0.4-0.5-0.6-0.8c-0.7-0.9-1.3-1.9-1.9-2.8c-0.4-0.6-0.8-1.2-1.1-1.8
		c-0.6-1-1.2-2-1.6-3.1c-0.1-0.3-0.2-0.5-0.3-0.8c-0.2-0.4-0.3-0.9-0.3-1.3c-0.1-1.1-0.3-2.2-0.4-3.3c-0.2-1.5-0.4-2.9-0.5-4.4
		c0-0.8-0.1-1.6-0.2-2.4c0-0.1,0-0.2,0-0.3c0-1.5,0-3,0-4.5c0-1,0.1-2,0.1-3c0.1-1,0.1-2.1,0.2-3.1c0-0.4,0.1-0.8,0.2-1.2
		c0.2-0.8,0.5-1.7,0.7-2.5c0-0.2,0.1-0.3,0.2-0.4c0.3-0.7,0.6-1.5,0.8-2.2c0.3-1.1,0.7-2.1,1.1-3.2c0.4-1.1,1-2.2,1.4-3.3
		c0.1-0.3,0.2-0.6,0.3-0.9c0,0,0,0,0-0.1c0.4-0.6,0.6-1.1,1.1-1.6c0.8-0.9,1.8-1.7,2.7-2.5c0.2-0.2,0.5-0.3,0.7-0.4
		c0.1,0,0.3-0.1,0.4-0.1c0.5-0.1,0.9,0.1,1,0.6c0.2,1.1,0.3,2.3-0.2,3.4c-0.3,0.8-0.7,1.5-1.2,2.2c-0.5,0.7-0.8,1.4-1.1,2.2
		c-0.1,0.5-0.3,1-0.5,1.6c-0.4,1-0.6,2-0.8,3c-0.1,0.6-0.3,1.1-0.5,1.7c-0.1,0.5-0.2,0.9-0.3,1.4c0,0.1,0,0.2-0.1,0.3
		c-0.2,0.4-0.2,0.8-0.3,1.2c0,0.3,0,0.6-0.1,0.9c-0.1,0.3-0.1,0.6-0.1,0.9c0,0.3,0.2,0.6,0.5,0.7c0.1,0,0.2,0,0.3,0
		c0.2-0.2,0.4-0.3,0.5-0.7c0.1-0.8,0.3-1.6,0.5-2.4c0.2-1,0.6-2,0.8-3.1c0.1-0.6,0.5-1,0.8-1.5c0,0,0.1-0.1,0.1-0.1
		c0.7-0.4,1.3-0.8,2-1.1c0.2-0.1,0.5-0.2,0.7-0.3c0.2-0.1,0.5-0.2,0.7-0.3c0.7-0.3,1.4-0.6,2.1-0.8c0.2-0.1,0.4,0,0.6,0
		c0.5,0,1,0,1.6,0c0.3,0,0.6,0,1,0.1c1.1,0,2.3,0,3.4,0c0.6,0,1.3,0,1.9,0.1c0.3,0,0.6,0.1,0.9,0.1c0.5,0.1,1,0.2,1.4,0.2
		c0.6,0,1.1,0.1,1.7,0.2c0.6,0.2,1.3,0.3,1.9,0.4c0.2,0,0.4,0.1,0.6,0.1c0.1,0,0.2,0,0.2,0c0.5,0.1,0.9,0.2,1.4,0.3
		c0.3,0.1,0.7,0.2,1,0.2c0,0,0.1,0,0.1,0c0.6,0.1,0.7,0.5,0.6,1c0,0.2-0.1,0.3-0.2,0.5c-0.2,0.3-0.4,0.6-0.7,1
		c-0.1,0.2-0.3,0.3-0.6,0.4c-0.7,0.2-1.4,0.4-2.2,0.5c-0.2,0-0.4,0.1-0.6,0.1c-0.5,0-1,0-1.4,0c-0.2,0-0.4-0.1-0.6-0.1
		c-0.7,0-1.4-0.3-2.1-0.5c-0.2,0-0.4,0-0.6,0c-0.5,0.1-1,0.2-1.5,0.3c-0.1,0-0.2,0-0.3,0c-0.9,0-1.9,0.1-2.8,0.1
		c-0.5,0-1.1,0.1-1.6,0.1c-0.2,0-0.4,0.1-0.7,0c-0.7,0-1.3,0.1-2,0.2c-0.3,0.1-0.5,0.3-0.7,0.5c0,0.1-0.1,0.1-0.1,0.2
		c-0.3,0.3-0.4,0.7-0.5,1c-0.3,0.8-0.5,1.6-0.7,2.4c-0.1,0.4,0,0.6,0.4,0.6c0.1,0,0.3,0,0.4,0c0.3,0,0.5-0.2,0.6-0.5
		c0.1-0.4,0.2-0.8,0.4-1.2c0.1-0.3,0.2-0.7,0.4-1c0-0.1,0.1-0.2,0.1-0.3c0-0.3,0.2-0.3,0.4-0.3c0.8-0.1,1.6-0.1,2.4-0.2
		c0.3,0,0.7-0.1,1-0.1c0.5,0,1-0.1,1.5-0.1C55.8,36.1,55.9,36.1,55.9,36.1"/>
	<path class="st0" d="M73.6,25.1c0.3-0.3,0.6-0.7,0.9-1.1c0.3-0.4,0.5-0.7,0.8-1.1c0.4-0.5,0.6-0.5,1.2-0.2c0.2-0.2,0.4-0.4,0.7-0.6
		c0.4-0.3,0.7-0.7,1-1.1c0.1-0.1,0.1-0.2,0.2-0.3c0.2-0.2,0.4-0.3,0.7-0.3c0.2,0,0.3,0,0.4-0.1c0.3-0.3,0.6-0.6,0.9-1
		c0.2-0.2,0.5-0.5,0.8-0.7c0.2-0.1,0.3-0.3,0.4-0.5c0.1-0.3,0.3-0.6,0.5-0.8c0.2-0.3,0.6-0.5,0.9-0.6c0.1-0.1,0.3,0,0.5,0
		c0.1-0.1,0.1-0.3,0.2-0.4c0.1-0.1,0.1-0.2,0.2-0.3c0.4-0.7,0.7-1.4,0.8-2.2c0-0.3,0.1-0.6,0.3-0.8c0.1-0.1,0.1-0.3,0.1-0.4
		c0.1-0.7,0-1.4-0.1-2.1c-0.2-1.4-0.7-2.6-1.1-3.9c-0.5-1.6-1.2-3.2-2-4.7c-0.3-0.5-0.5-0.9-0.7-1.4c-0.1-0.1-0.1-0.3-0.1-0.4
		c0.3-0.1,0.8,0,1,0.3c0.1,0.2,0.3,0.3,0.4,0.4c0,0,0.1,0,0.1,0.1c0.4,0.5,0.9,0.8,1.5,1.1c0.3,0.2,0.5,0.4,0.6,0.7
		C84.4,3,84.6,3.3,85,3.5c0.3,0.2,0.5,0.4,0.6,0.8c0.1,0.1,0.2,0.3,0.3,0.4c0.3,0.3,0.4,0.6,0.6,1c0.2,0.8,0.5,1.5,0.6,2.3
		c0.2,1,0.2,2.1,0,3.1c-0.1,0.8-0.4,1.5-0.7,2.2c-0.1,0.2-0.2,0.5-0.2,0.8c0,0.3-0.1,0.6-0.2,0.9c-0.3,1-0.6,1.9-0.8,2.9
		c0,0.2-0.1,0.4-0.2,0.5c-0.4,1-0.9,2-1.3,3c-0.2,0.5-0.4,1.1-0.6,1.6c-0.4,1.1-0.9,2.1-1.5,3.1c-0.5,0.9-1.1,1.6-1.9,2.2
		c-0.5,0.4-1,0.8-1.5,1.2c-0.3,0.2-0.7,0.4-1,0.6c-1,0.7-2.1,1.3-3.1,2.1c-0.2,0.2-0.5,0.3-0.8,0.4c-0.2,0.1-0.4,0.2-0.6,0.3
		c-0.1,0-0.2,0.1-0.2,0.1c-0.2,0.3-0.6,0.5-0.9,0.7c-0.3,0.2-0.7,0.5-1.1,0.7c-0.6,0.4-1.1,0.9-1.5,1.5c-0.2,0.2-0.4,0.4-0.7,0.5
		c-0.3,0.1-0.5-0.1-0.5-0.4c0-0.2,0.1-0.4,0.1-0.6c0-0.1,0.1-0.2,0.1-0.3c0-0.8,0.2-1.6,0.6-2.4c0.2-0.4,0.3-0.8,0.5-1.1
		c0.3-0.5,0.6-0.9,0.9-1.4c0.1-0.2,0.2-0.4,0.3-0.6c0.1-0.2,0.2-0.3,0.3-0.5c0.4-0.5,0.7-1.1,1-1.7c0.2-0.3,0.3-0.7,0.4-1.1
		c0.1-0.2,0.1-0.4,0.2-0.6C72.6,24.9,73,24.8,73.6,25.1C73.5,25.1,73.5,25.1,73.6,25.1"/>
	<path class="st0" d="M54.5,28.4c-0.6,0-1.1,0-1.7,0c-0.5,0-0.9,0-1.4-0.1c-0.2,0-0.2-0.1-0.2-0.2c0.1-0.3,0.1-0.6,0.2-0.8
		c0.1-0.4,0.1-0.9,0.2-1.3c0.1-0.6,0.2-1.3,0.5-1.9c0.1-0.2,0.1-0.4,0.2-0.6c0.1-0.3,0.2-0.6,0.3-0.9c0.2-0.6,0.4-1.2,0.6-1.8
		c0.2-0.5,0.4-0.9,0.6-1.3c0.5-0.9,1-1.7,1.6-2.5c0.3-0.5,0.7-1,1-1.4c0.8-1.1,1.7-2,2.7-2.9c0.3-0.3,0.5-0.5,0.8-0.7
		c0.4-0.3,0.8-0.2,1.2-0.1c0.2,0.1,0.4,0.2,0.4,0.5c0.1,0.4,0.2,0.8,0.3,1.1c0,0.2,0,0.4,0,0.6c-0.1,0.5-0.3,1.1-0.5,1.6
		c0,0.1-0.1,0.3-0.2,0.4c-0.6,0.8-1.1,1.6-1.5,2.5c-0.1,0.2-0.3,0.5-0.4,0.7c-0.4,0.8-0.7,1.6-0.9,2.4c-0.1,0.3-0.1,0.6-0.2,0.8
		c-0.2,0.6-0.3,1.2-0.4,1.8c-0.1,0.9-0.2,1.8-0.3,2.7c-0.1,0.4-0.2,0.8-0.2,1.3c0,0.2-0.1,0.2-0.3,0.2
		C55.9,28.4,55.2,28.4,54.5,28.4z"/>
	<path class="st0" d="M67.3,16.5c0,1.1-0.3,2.1-0.9,3c-0.5,0.8-1.1,1.5-1.8,2.1c-0.3,0.2-0.4,0.5-0.6,0.9c-0.2,0.5-0.3,1.1-0.4,1.6
		c-0.1,0.3-0.1,0.5-0.1,0.8c0,1.2-0.2,2.3-0.5,3.4c0,0.2-0.1,0.3-0.1,0.5c-0.1,0.2-0.2,0.3-0.4,0.3c-0.5,0-1.1-0.1-1.6-0.2
		c-0.8-0.1-1.6-0.2-2.4-0.4c-0.1,0-0.1,0-0.1,0c-0.2,0-0.2-0.1-0.2-0.3c0-0.3,0-0.6,0.1-0.8c0-0.1,0-0.3,0-0.4c0-0.1,0-0.1,0-0.2
		c0.1-0.5,0.1-1,0.3-1.5c0.3-1,0.4-2,0.6-2.9c0.2-0.9,0.6-1.7,0.9-2.5c0.1-0.3,0.4-0.6,0.7-0.8c0.7-0.5,1.4-1.1,2.1-1.6
		c0.2-0.2,0.5-0.3,0.7-0.5c0.4-0.3,0.7-0.6,1.1-0.9c0.4-0.3,0.9-0.6,1.3-0.9c0.4-0.3,1.3,0,1.3,0.7C67.3,16.1,67.3,16.3,67.3,16.5"
		/>
</g>
</svg>
