<svg id="Layer_1" data-name="Layer 1" xmlns="http://www.w3.org/2000/svg" viewBox="0 0 256.92 276.54"><title>gumica</title><path d="M184.94,249.87c1.17,3.41,2.14,6.91,3.55,10.21a278.52,278.52,0,0,1,12.3,34.1c2.56,9.1,5.53,18.15,6.27,27.64a105.85,105.85,0,0,1-.2,15.48A93.22,93.22,0,0,1,205,350.65a123.86,123.86,0,0,1-3.74,12.51c-1.52,4.59-4.37,8.45-7.42,12.08a15.79,15.79,0,0,1-5.21,3.72c-3.68,1.78-7.49,3.31-11.3,4.79-5.64,2.2-11.39,1.36-17,0A66.1,66.1,0,0,1,148.43,380a42.57,42.57,0,0,1-8.76-5.75,64.12,64.12,0,0,1-18.5-24.38,76.67,76.67,0,0,1-5.9-17.11c-.86-4.53-1.42-9.12-1.91-13.71a47.29,47.29,0,0,1-.36-9.49,182.61,182.61,0,0,1,2.6-18.37c1.17-5.79,2.92-11.47,4.6-17.15a45.15,45.15,0,0,1,2.67-6.14c1.42-3,2.72-6.16,4.38-9.06,3.37-5.88,6.75-11.77,10.5-17.41,2.93-4.42,6.45-8.45,9.64-12.69,2.68-3.57,5.26-7.22,7.92-10.81a3.82,3.82,0,0,0,.4-4.14c-1.95-5.16-3.75-10.4-5.23-15.71-1.91-6.81-2-13.88-1.85-20.87a83.16,83.16,0,0,1,1.82-13.91c1.42-7.21,4.4-13.91,7.54-20.52,2.45-5.15,6.3-9.2,10.26-13.15a65.42,65.42,0,0,1,7.1-6.48c3-2.19,6.3-3.85,9.38-5.9a48.3,48.3,0,0,1,16-6.43c8.87-2.07,17.94-3,27.18-1.54,7.17,1.17,14.27,2.53,20.74,5.77,5,2.49,9.5,5.82,14.15,8.89,1.52,1,2.71,2.51,4.2,3.57a4.06,4.06,0,0,0,2.78.79c9.19-1.91,18.46-2.93,27.81-1.77a128.92,128.92,0,0,1,14.55,3,66.26,66.26,0,0,1,19.89,9c4.15,2.66,7.51,6.2,10.82,9.76a53.7,53.7,0,0,1,6.29,7.56,58.44,58.44,0,0,1,9.16,26.32,7.31,7.31,0,0,0,.81,2.83A85.25,85.25,0,0,1,369,214.93c.6,4.36.49,8.81.71,13.22.37,7.58-1.24,14.88-3.45,22a58.23,58.23,0,0,1-6.58,14.49A60,60,0,0,1,348,277.89c-1.48,1.26-3.38,2-5,3.15a28.91,28.91,0,0,1-12.88,5.13c-7.17,1-14.31,1.63-21.41-.81-3.44-1.18-6.21-3.34-8.91-5.49a70.08,70.08,0,0,1-8.61-8.53,3,3,0,0,0-3.18-1.17c-3,.54-6,1-9,1.55-7.36,1.45-14.81,1.43-22.22,1-6.2-.36-12.37-1.31-18.53-2.14-10.82-1.47-21.06-5.1-31.12-9.11-4.66-1.86-8.88-4.81-13.29-7.28-2.79-1.56-5.55-3.16-8.33-4.74Zm99.33,8.85a8.72,8.72,0,0,0,0-1.24c-1-4-2.4-8-3-12-.83-6.06-1.15-12.2-1.56-18.31-.77-11.25-1.41-22.51-2.19-33.76a108.36,108.36,0,0,0-1.29-12.45c-1.13-6-2.69-12-4.1-17.94s-4.72-11.38-7.69-16.79c-.52-.94-1.29-2.19-2.16-2.39a11,11,0,0,0-5.44-.13,49.8,49.8,0,0,0-8.07,3.58c-4.57,2.35-9.13,4.74-13.58,7.31a67.1,67.1,0,0,0-8.58,5.72c-5.87,4.73-11.78,9.46-17.28,14.61-7.12,6.67-13.94,13.67-20.72,20.68a104.64,104.64,0,0,0-7.22,8.92,7.39,7.39,0,0,0-1.19,2.62c-1.8,6.91-1.32,14-1,21a5.44,5.44,0,0,0,1.47,3.08,55.48,55.48,0,0,0,5,4.76,94,94,0,0,0,16.39,10.73,117,117,0,0,0,27.52,10.74,132.35,132.35,0,0,0,19.91,3.35,111.8,111.8,0,0,0,17.45.09C272.72,260.47,278.45,259.45,284.27,258.72ZM162.86,228.23a8.11,8.11,0,0,0-.84.8c-2.21,2.79-4.45,5.56-6.58,8.41-3.68,4.94-7.35,9.88-10.89,14.91-2.45,3.48-4.8,7.05-6.94,10.73-2.29,3.93-4.4,8-6.38,12.07-4.44,9.15-6.24,19-6.73,29a85,85,0,0,0,7.2,38.71,55.19,55.19,0,0,0,10,15.56c2.55,2.75,5,5.61,7.71,8.2,3.14,3,6.75,5.54,11.1,6.19a26,26,0,0,0,16.17-2.75c4.55-2.38,7.34-6.3,9.66-10.67,3.36-6.32,6.05-12.89,6.83-20.06.47-4.33.81-8.69.88-13a137.62,137.62,0,0,0-.38-14.7,56.42,56.42,0,0,0-2.18-10.88,80.85,80.85,0,0,0-3.84-9.44c-3.29-7.48-6.72-14.89-9.93-22.4-2-4.72-3.81-9.54-5.57-14.37a79.92,79.92,0,0,1-2.41-8.16,77.36,77.36,0,0,1-2.13-10.26C167.26,232.63,166,230,162.86,228.23ZM281.78,146a29.32,29.32,0,0,0,.76,3.24c.55,1.47,1.16,2.92,1.85,4.33,3.78,7.72,5.26,16.09,6.1,24.47.79,7.88.61,15.88.6,23.82,0,10.25-1.43,20.49.4,30.76a92,92,0,0,0,5.13,18c.38,1,.93,1.84,1.42,2.81C306.58,250,314,245,321,239.55a60.51,60.51,0,0,0,11.88-12.89c5.91-8.28,10.42-17.11,11.94-27.29.68-4.57,1.91-9.1,1.17-13.79-.19-1.23-.2-2.75-.92-3.59-3.45-4-6.94-8-10.74-11.61a66.94,66.94,0,0,0-17.62-12c-6-2.86-12.21-5.39-18.48-7.63C293.06,148.93,287.64,147.7,281.78,146Zm-117,60a32.18,32.18,0,0,0,3-3.45c1.74-2.77,3.72-5.49,4.9-8.5,2.23-5.72,4.1-11.56,7.2-16.91,3.41-5.88,6.84-11.63,11.41-16.79,6-6.81,12.53-13,20.19-17.82a92.82,92.82,0,0,1,14.81-7,65.65,65.65,0,0,1,19.56-4.71,27.29,27.29,0,0,0,3.61-.82c-.91-.79-1.31-1.2-1.77-1.52-4-2.83-8.47-4.47-13-6.08A53.35,53.35,0,0,0,211.79,120a61.6,61.6,0,0,0-19.23,5.3c-9.69,4.24-17.66,10.42-22.77,19.86-2.14,4-4.56,7.85-6,12.05a73.47,73.47,0,0,0-3.34,14.27c-1.36,9.68-.14,19.27,2.09,28.73A45.57,45.57,0,0,0,164.78,206Zm191.51,5.52-.71-.14c-.46,1.16-.88,2.32-1.37,3.46-2.61,6.1-5,12.33-9.29,17.53-2,2.44-3.59,5.32-5.86,7.49-5.63,5.36-11.25,10.8-17.44,15.46-4.58,3.44-10,5.73-15.14,8.43-1.4.74-1.75,1.25-.67,2.63a25.63,25.63,0,0,0,12.31,8.32c2.42.82,5,1.75,7.75.93,9.21-2.74,16.09-8.69,21.63-16.18,3.75-5.07,5.83-11.07,7.48-17.16a66.79,66.79,0,0,0,1.74-27.53C356.57,213.7,356.44,212.62,356.29,211.54Z" transform="translate(-112.89 -108.56)"/></svg>