<?xml version="1.0" encoding="utf-8"?>
<!-- Generator: Adobe Illustrator 21.0.0, SVG Export Plug-In . SVG Version: 6.00 Build 0)  -->
<svg version="1.1" id="Layer_1" xmlns="http://www.w3.org/2000/svg" xmlns:xlink="http://www.w3.org/1999/xlink" x="0px" y="0px"
	 viewBox="0 0 140 45" style="enable-background:new 0 0 140 45;" xml:space="preserve">
<style type="text/css">
	.st0{fill:#2A4336;}
</style>
<g>
	<path class="st0" d="M21.7,1.1h1.2v9.8h-1.2c-0.3-2.7-1.3-4.8-2.9-6.3C17.1,3,15,2.3,12.5,2.3C10.2,2.3,8.4,2.8,7,4
		C5.7,5.1,5,6.6,5,8.5c0,1.7,0.6,3.3,1.7,4.8c1.1,1.4,3.6,3.3,7.4,5.6c4.4,2.6,7.4,4.9,8.9,6.9c1.5,2,2.3,4.2,2.3,6.7
		c0,3.3-1.2,6.1-3.5,8.4c-2.3,2.3-5.1,3.5-8.4,3.5c-1.9,0-4.3-0.5-7.2-1.6c-1.2-0.4-2-0.6-2.3-0.6c-0.7,0-1.2,0.5-1.6,1.6H1V32.5
		h1.2c0,3.1,1,5.6,3,7.4c2,1.9,4.3,2.8,7,2.8c2.5,0,4.5-0.7,6.1-2c1.5-1.3,2.3-3.1,2.3-5.4c0-1.7-0.6-3.3-1.9-4.8
		c-1.3-1.5-3.9-3.5-7.8-5.9c-3.2-2-5.4-3.6-6.5-4.7C3.3,18.6,2.5,17.4,2,16c-0.5-1.4-0.8-2.9-0.8-4.6c0-3.2,1-5.8,3.1-7.8
		c2.1-2,4.8-3,8.2-3c1.8,0,3.9,0.4,6,1.1c1,0.3,1.7,0.5,2.1,0.5c0.3,0,0.6-0.1,0.7-0.2C21.5,1.9,21.6,1.6,21.7,1.1"/>
	<path class="st0" d="M39.9,17.7v1.2c-1.7,0.1-2.5,0.9-2.5,2.1c0,0.6,0.2,1.4,0.6,2.3l5.7,13.7l5-13c0.5-1.3,0.8-2.3,0.8-3
		c0-1.3-1.1-2-3.3-2.2v-1.2h9.4v1.2c-1.5,0.1-2.6,0.5-3.2,0.9c-0.6,0.5-1.2,1.4-1.7,2.8l-8.3,21.3h-1.2l-8.2-20.2
		c-0.8-2-1.5-3.3-2.1-3.9c-0.6-0.6-1.7-0.9-3.3-0.9v-1.2H39.9z"/>
	<path class="st0" d="M81.5,36.7v1.9c-1.6,2-3.2,3.4-4.8,4.3c-1.6,0.8-3.6,1.3-5.8,1.3c-4,0-7.3-1.3-9.9-3.8
		c-2.6-2.5-3.9-5.7-3.9-9.6c0-3.9,1.2-7.2,3.7-9.9c2.5-2.7,5.5-4,9.2-4c3,0,5.6,1,7.8,3c2.2,2,3.3,4.4,3.3,7.2v0.5H62.2V28
		c0,2.8,0.4,5.3,1.3,7.4c0.9,2.1,2.1,3.7,3.8,4.9c1.7,1.2,3.4,1.8,5.2,1.8c1.7,0,3.1-0.3,4.3-1C77.9,40.3,79.5,38.9,81.5,36.7
		 M62.2,26.4h14v-0.5c0-2.3-0.7-4.1-2-5.5c-1.3-1.3-2.9-2-4.9-2c-2.1,0-3.8,0.7-5,2.1C63,21.9,62.3,23.9,62.2,26.4"/>
	<path class="st0" d="M92.4,8.9h1.2v8.7h8.9v1.9h-8.9V36c0,1.7,0.4,3.1,1.2,4c0.8,0.9,1.9,1.4,3.4,1.4c1.8,0,3.3-0.8,4.8-2.5l0.8,1
		c-2.2,2.9-4.8,4.3-7.8,4.3c-2.2,0-4-0.7-5.4-2.1c-1.4-1.4-2.1-3.2-2.1-5.4V19.4h-4.9v-1.2C87.4,16.4,90.2,13.3,92.4,8.9"/>
	<path class="st0" d="M115.3,44.1c-2,0-3.7-0.7-5.2-2c-1.4-1.3-2.2-2.9-2.2-4.8c0-1.8,0.6-3.3,1.9-4.4c1.2-1.2,3.8-2.3,7.6-3.4
		c2.4-0.7,4-1.2,4.8-1.7v-1.9c0-1.9-0.5-3.4-1.6-4.5s-2.4-1.7-4.2-1.7c-1.6,0-3,0.5-4.2,1.5c-1.2,1-2.1,2.3-2.6,4l-1.3-0.4
		c0.5-2.4,1.7-4.3,3.4-5.7c1.7-1.4,3.8-2.2,6.1-2.2c2.8,0,5,0.8,6.7,2.5c1.7,1.7,2.6,4,2.6,6.9v11c0,1.6,0.1,2.6,0.3,3.2
		c0.2,0.6,0.6,0.8,1.2,0.8c0.4,0,0.7-0.2,0.9-0.5c0.2-0.3,0.5-1,0.8-2h1.2c-0.1,1.6-0.6,2.9-1.5,3.8c-0.9,0.9-2.1,1.4-3.5,1.4
		c-2.1,0-3.6-1.2-4.4-3.7c-1.3,1.4-2.4,2.4-3.4,2.9C117.9,43.9,116.7,44.1,115.3,44.1 M122.3,38.1v-8.7c-0.7,0.3-1.8,0.7-3.2,1.2
		c-2.6,0.9-4.2,1.7-4.9,2.6c-0.7,0.9-1.1,2-1.1,3.5c0,1.3,0.4,2.4,1.2,3.3c0.8,0.9,1.7,1.4,2.7,1.4c1,0,2-0.3,3-0.9
		C121.1,39.8,121.8,39,122.3,38.1"/>
	<path class="st0" d="M133.7,11h-3.5v0.7h1.4v3.7h0.8v-3.7h1.4V11z M139,11h-1l-1.2,3.4h0l-1.2-3.4h-1.1v4.3h0.7V12h0l1.2,3.3h0.6
		l1.2-3.3h0v3.3h0.7V11z"/>
</g>
</svg>
