<?xml version="1.0" encoding="utf-8"?>
<!-- Generator: Adobe Illustrator 21.0.0, SVG Export Plug-In . SVG Version: 6.00 Build 0)  -->
<svg version="1.1" id="Layer_1" xmlns="http://www.w3.org/2000/svg" xmlns:xlink="http://www.w3.org/1999/xlink" x="0px" y="0px"
	 viewBox="0 0 289.3 102.1" style="enable-background:new 0 0 289.3 102.1;" xml:space="preserve">
<g>
	<path d="M289.3,0H187.2v102.1h51.1v-1V67.9h-17v33.3h-17V51.4h34v-1V1h17v101.1h17V1h17V0z M221.3,50.4h-17V1h17V50.4z"/>
	<path d="M136.2,96.4V0h-17l-17,96.4V67.9h-17v33.3h-17V51.4H102h0.2V0h0H0v1h17v101.1h17V1h17v101.1h51.1v0l17-96.4v96.4h17v0
		l17-96.4v96.4h17V0h-17L136.2,96.4z M85.1,1v49.4h-17V1H85.1z"/>
</g>
</svg>
